<svg version="1.0" xmlns="http://www.w3.org/2000/svg"
 width="2732.000000pt" height="2732.000000pt" viewBox="0 0 2732.000000 2732.000000"
 preserveAspectRatio="xMidYMid meet">

<g transform="translate(0.000000,2732.000000) scale(0.100000,-0.100000)"
fill="#000000" stroke="none">
<path d="M11010 25180 l0 -740 80 0 80 0 -2 738 -3 737 -77 3 -78 3 0 -741z"/>
<path d="M8463 25855 c-40 -17 -53 -42 -53 -99 0 -57 30 -94 81 -102 31 -5 42
-1 70 24 29 26 33 35 33 81 0 42 -5 56 -25 75 -32 31 -67 38 -106 21z"/>
<path d="M6987 25823 c-4 -3 -7 -316 -7 -695 l0 -688 76 0 75 0 -3 579 -3 579
40 -61 c22 -33 191 -292 376 -576 l336 -516 96 -3 97 -3 -2 693 -3 693 -75 0
-75 0 0 -545 c1 -300 4 -560 8 -578 4 -18 3 -31 -1 -28 -4 2 -176 263 -382
580 l-375 576 -86 0 c-47 0 -89 -3 -92 -7z"/>
<path d="M14030 25135 l0 -695 80 0 80 0 0 295 0 295 290 0 290 0 0 75 0 75
-290 0 -290 0 0 250 0 250 308 2 307 3 0 70 0 70 -387 3 -388 2 0 -695z"/>
<path d="M9230 25490 c-134 -24 -236 -95 -303 -212 -56 -95 -84 -270 -67 -415
24 -217 121 -356 288 -414 112 -39 295 -36 404 8 l38 15 0 69 c0 38 -3 69 -7
69 -5 0 -37 -10 -73 -22 -49 -16 -91 -21 -170 -22 -95 -1 -110 2 -155 26 -27
14 -60 37 -72 50 -97 106 -123 383 -51 550 27 64 102 131 165 149 80 22 220
10 317 -27 10 -4 20 11 35 51 27 72 27 80 -6 94 -86 35 -241 49 -343 31z"/>
<path d="M10134 25485 c-177 -38 -296 -165 -340 -362 -22 -100 -15 -292 14
-373 48 -135 123 -229 224 -279 157 -79 373 -63 510 36 128 93 188 237 188
453 0 183 -39 298 -135 399 -30 32 -77 70 -103 84 -98 53 -234 69 -358 42z
m274 -160 c90 -49 134 -126 153 -272 9 -70 10 -113 1 -183 -25 -208 -125 -312
-296 -312 -193 0 -288 95 -316 316 -18 150 12 309 75 392 25 32 80 67 135 85
14 5 63 7 110 6 72 -3 93 -7 138 -32z"/>
<path d="M11791 25490 c-63 -9 -212 -56 -237 -75 -16 -11 -16 -16 7 -69 17
-41 27 -56 39 -52 8 2 49 17 90 32 55 20 100 28 170 31 85 4 100 2 140 -19 64
-33 91 -86 97 -192 l6 -83 -154 -6 c-85 -3 -184 -13 -222 -21 -213 -47 -319
-166 -304 -343 14 -185 149 -284 367 -270 113 7 184 37 257 109 29 29 54 50
57 47 2 -2 10 -33 17 -69 l14 -65 63 -3 63 -3 -3 403 c-4 350 -6 410 -22 456
-50 152 -219 224 -445 192z m305 -632 c-16 -202 -113 -299 -300 -302 -135 -2
-196 45 -204 153 -8 110 47 179 168 211 39 11 182 24 304 29 l39 1 -7 -92z"/>
<path d="M12764 25486 c-154 -35 -238 -116 -251 -241 -14 -132 61 -221 249
-300 295 -123 328 -147 328 -240 0 -106 -77 -150 -260 -149 -101 1 -169 16
-303 69 -16 7 -18 1 -15 -66 l3 -74 39 -18 c137 -64 410 -61 544 7 159 81 203
297 84 419 -50 52 -113 86 -267 146 -217 84 -269 131 -245 221 21 76 95 106
248 98 65 -4 123 -14 175 -31 l79 -25 27 61 28 62 -22 12 c-91 50 -324 75
-441 49z"/>
<path d="M15295 25487 c-226 -58 -358 -282 -342 -577 12 -217 99 -364 259
-440 127 -60 332 -66 489 -13 l84 28 3 73 c2 39 2 72 0 72 -2 0 -36 -11 -75
-25 -91 -31 -229 -49 -306 -41 -161 17 -268 130 -284 300 l-6 66 357 0 356 0
0 84 c0 113 -14 178 -55 263 -44 89 -121 162 -203 193 -71 27 -206 35 -277 17z
m221 -146 c79 -36 127 -115 141 -231 l6 -50 -272 0 -273 0 7 43 c9 56 50 145
83 181 67 72 215 99 308 57z"/>
<path d="M16473 25482 c-75 -27 -130 -69 -179 -135 -48 -65 -49 -65 -59 56
l-7 77 -64 0 -64 0 0 -520 0 -520 79 0 80 0 3 333 3 332 33 67 c63 128 161
185 302 175 l77 -5 10 72 c5 39 9 73 7 75 -1 2 -40 5 -86 7 -64 4 -95 0 -135
-14z"/>
<path d="M17273 25486 c-23 -7 -57 -23 -77 -35 -39 -24 -145 -136 -147 -154
-2 -26 -17 40 -18 79 -1 23 -4 56 -7 73 -6 31 -7 31 -70 31 l-64 0 0 -520 0
-520 79 0 80 0 3 333 3 332 33 67 c63 129 161 185 303 175 l77 -5 10 71 c6 39
9 73 7 75 -12 12 -174 10 -212 -2z"/>
<path d="M17965 25487 c-248 -64 -388 -348 -330 -671 37 -210 177 -353 378
-387 108 -18 256 -6 358 28 l84 28 3 74 c3 67 1 73 -15 66 -92 -39 -185 -57
-298 -58 -113 -2 -123 0 -177 26 -100 49 -161 146 -175 278 l-6 59 357 0 356
0 0 98 c0 110 -21 203 -63 274 -39 67 -127 143 -195 168 -71 27 -206 35 -277
17z m251 -162 c61 -38 101 -111 111 -202 l6 -63 -271 0 -271 0 6 38 c17 111
72 195 155 237 47 23 63 26 134 23 69 -3 87 -7 130 -33z"/>
<path d="M19155 25487 c-22 -8 -51 -19 -65 -27 -37 -20 -130 -111 -148 -145
l-16 -30 -7 25 c-4 14 -7 44 -8 66 -1 23 -4 56 -7 73 -6 31 -7 31 -70 31 l-64
0 0 -520 0 -520 79 0 80 0 3 333 3 332 27 57 c15 32 49 80 75 106 66 66 128
87 234 79 l77 -5 10 71 c6 39 9 73 7 75 -11 12 -174 11 -210 -1z"/>
<path d="M19875 25490 c-176 -36 -303 -158 -349 -337 -25 -96 -30 -225 -12
-321 46 -259 222 -412 469 -412 225 1 386 123 453 345 23 75 26 283 5 365 -48
193 -180 327 -355 359 -67 12 -152 13 -211 1z m214 -146 c71 -21 140 -89 172
-170 21 -53 23 -75 23 -214 0 -139 -2 -161 -23 -214 -48 -120 -145 -188 -270
-188 -155 -1 -250 66 -297 208 -26 81 -27 302 -1 386 18 59 64 128 108 160 64
48 189 62 288 32z"/>
<path d="M8420 24960 l0 -520 80 0 80 0 0 520 0 520 -80 0 -80 0 0 -520z"/>
<path d="M13350 22249 c-247 -8 -458 -22 -580 -37 -47 -6 -107 -14 -135 -17
-197 -21 -381 -50 -580 -90 -44 -9 -96 -18 -115 -21 -19 -3 -42 -8 -50 -11
-17 -7 -126 -30 -185 -39 -22 -3 -47 -8 -55 -12 -14 -5 -98 -27 -150 -38 -14
-3 -34 -9 -45 -14 -11 -5 -31 -11 -45 -14 -64 -13 -129 -32 -136 -39 -4 -4
-18 -7 -31 -7 -13 0 -31 -4 -41 -9 -24 -13 -117 -41 -136 -41 -9 0 -16 -4 -16
-9 0 -5 -18 -11 -40 -15 -23 -3 -49 -10 -58 -15 -9 -5 -42 -16 -72 -26 -30 -9
-66 -21 -80 -27 -75 -31 -154 -58 -173 -58 -9 0 -17 -4 -17 -10 0 -5 -9 -10
-20 -10 -19 0 -30 -4 -132 -49 -26 -12 -51 -21 -55 -21 -5 0 -29 -11 -56 -24
-26 -14 -61 -27 -77 -31 -17 -4 -30 -11 -30 -16 0 -5 -11 -9 -25 -9 -14 0 -25
-4 -25 -10 0 -5 -8 -10 -18 -10 -10 0 -27 -7 -38 -15 -10 -8 -29 -15 -41 -15
-13 0 -23 -4 -23 -8 0 -4 -22 -16 -50 -27 -27 -11 -50 -23 -50 -27 0 -4 -6 -8
-14 -8 -17 0 -80 -32 -84 -42 -2 -5 -9 -8 -15 -8 -12 0 -218 -100 -227 -109
-3 -3 -30 -19 -60 -35 -30 -15 -86 -45 -125 -66 -38 -21 -95 -51 -125 -66 -30
-16 -57 -32 -60 -35 -3 -4 -43 -30 -90 -58 -47 -28 -90 -54 -96 -58 -26 -20
-50 -34 -66 -39 -10 -4 -18 -10 -18 -14 0 -4 -8 -10 -17 -14 -21 -6 -51 -25
-71 -43 -7 -7 -17 -13 -21 -13 -4 0 -16 -8 -27 -18 -10 -10 -34 -27 -51 -37
-18 -11 -33 -23 -33 -27 0 -4 -7 -8 -15 -8 -8 0 -15 -3 -15 -8 0 -4 -16 -16
-35 -26 -19 -11 -35 -23 -35 -28 0 -4 -5 -8 -10 -8 -12 0 -116 -72 -162 -112
-12 -10 -24 -18 -28 -18 -4 0 -23 -16 -43 -35 -20 -19 -40 -35 -44 -35 -5 0
-20 -11 -35 -25 -15 -14 -32 -25 -38 -25 -5 0 -10 -3 -10 -7 0 -5 -17 -19 -37
-33 -20 -14 -48 -36 -62 -50 -15 -14 -51 -45 -81 -70 -30 -25 -63 -52 -73 -60
-10 -8 -33 -28 -51 -45 -18 -16 -52 -46 -76 -65 -119 -96 -609 -586 -730 -730
-12 -14 -37 -42 -56 -62 -19 -20 -34 -40 -34 -43 0 -4 -15 -21 -33 -39 -17
-17 -48 -52 -68 -76 -20 -25 -49 -58 -63 -75 -14 -16 -26 -33 -26 -37 0 -4
-10 -17 -23 -30 -12 -13 -43 -50 -67 -83 -25 -33 -55 -71 -67 -85 -13 -14 -23
-28 -23 -33 0 -4 -11 -18 -25 -31 -14 -13 -25 -28 -25 -35 0 -6 -4 -11 -9 -11
-5 0 -12 -8 -15 -17 -3 -10 -19 -34 -36 -53 -17 -19 -33 -43 -36 -52 -3 -10
-10 -18 -15 -18 -5 0 -9 -7 -9 -15 0 -8 -3 -15 -8 -15 -4 0 -16 -16 -26 -35
-11 -19 -23 -35 -27 -35 -4 0 -10 -8 -13 -18 -4 -10 -14 -27 -24 -38 -23 -27
-41 -56 -48 -76 -4 -10 -10 -18 -15 -18 -5 0 -9 -5 -9 -10 0 -13 -100 -174
-111 -178 -5 -2 -9 -10 -9 -17 0 -8 -6 -20 -12 -27 -12 -12 -28 -39 -62 -103
-6 -11 -13 -22 -16 -25 -6 -6 -33 -54 -68 -122 -15 -29 -29 -55 -32 -58 -3 -3
-14 -23 -25 -45 -11 -22 -22 -42 -25 -45 -3 -3 -19 -32 -35 -65 -17 -33 -33
-61 -37 -63 -5 -2 -8 -9 -8 -16 0 -6 -29 -69 -65 -140 -36 -70 -65 -134 -65
-142 0 -8 -4 -14 -8 -14 -4 0 -14 -17 -21 -37 -7 -21 -24 -63 -38 -93 -13 -30
-30 -68 -37 -85 -7 -16 -19 -43 -26 -60 -32 -75 -40 -94 -64 -148 -14 -32 -26
-66 -26 -77 0 -11 -4 -20 -10 -20 -5 0 -10 -11 -10 -24 0 -14 -4 -27 -9 -31
-5 -3 -13 -20 -17 -37 -3 -18 -10 -39 -14 -48 -23 -44 -40 -90 -40 -109 0 -12
-4 -21 -10 -21 -5 0 -10 -8 -10 -17 -1 -21 -34 -120 -44 -130 -3 -3 -6 -16 -6
-28 0 -12 -3 -25 -7 -29 -11 -10 -43 -118 -43 -143 0 -13 -3 -23 -8 -23 -8 0
-31 -81 -39 -137 -3 -18 -9 -33 -13 -33 -4 0 -10 -15 -13 -32 -3 -18 -13 -62
-22 -98 -9 -36 -19 -78 -22 -95 -3 -16 -9 -35 -14 -41 -5 -6 -11 -36 -15 -67
-4 -32 -11 -60 -15 -63 -5 -3 -9 -22 -9 -43 0 -21 -3 -41 -7 -45 -8 -8 -30
-117 -40 -196 -3 -25 -9 -49 -14 -54 -5 -6 -9 -26 -9 -45 0 -20 -5 -54 -11
-76 -9 -38 -14 -72 -38 -255 -6 -41 -15 -104 -20 -140 -6 -36 -11 -93 -11
-127 0 -34 -4 -65 -10 -68 -14 -9 -14 -1691 0 -1700 6 -3 10 -34 10 -68 1 -57
6 -102 31 -277 5 -36 14 -96 19 -135 5 -38 14 -88 19 -110 6 -22 11 -57 11
-77 0 -20 4 -39 9 -42 5 -3 11 -29 15 -58 9 -79 30 -185 39 -194 4 -4 7 -24 7
-45 0 -21 4 -40 9 -43 4 -3 11 -33 15 -65 4 -33 11 -63 16 -66 6 -4 10 -22 10
-41 0 -19 4 -34 8 -34 5 0 13 -26 19 -57 18 -91 24 -117 33 -138 4 -11 16 -49
25 -85 9 -36 21 -74 25 -85 4 -11 15 -47 25 -80 9 -33 20 -68 26 -77 5 -10 9
-26 9 -36 0 -10 3 -22 6 -25 10 -10 43 -109 44 -129 0 -10 5 -18 10 -18 6 0
10 -8 10 -17 0 -19 31 -115 40 -123 3 -3 15 -33 25 -67 11 -35 23 -63 27 -63
5 0 8 -9 8 -20 0 -11 12 -45 26 -77 24 -54 32 -73 64 -148 7 -16 19 -43 26
-60 7 -16 24 -55 37 -85 14 -30 31 -72 38 -93 7 -20 16 -37 19 -37 3 0 14 -23
25 -50 11 -28 23 -50 27 -50 4 0 8 -6 8 -13 0 -7 18 -48 40 -92 22 -44 40 -85
40 -91 0 -7 3 -14 8 -16 4 -1 20 -30 37 -63 16 -33 33 -62 36 -65 4 -3 9 -15
13 -27 4 -13 12 -23 17 -23 5 0 9 -9 9 -19 0 -11 3 -21 8 -23 4 -1 16 -21 27
-43 11 -22 22 -42 25 -45 3 -3 14 -23 25 -45 11 -22 22 -42 25 -45 3 -3 12
-19 21 -35 26 -50 43 -79 56 -93 7 -7 13 -19 13 -27 0 -7 4 -15 9 -17 11 -4
111 -165 111 -178 0 -5 4 -10 9 -10 5 0 11 -8 15 -18 7 -22 25 -49 54 -81 12
-14 22 -31 22 -38 0 -7 4 -13 8 -13 5 0 17 -16 28 -35 10 -19 22 -35 26 -35 5
0 8 -5 8 -10 0 -6 11 -23 25 -38 14 -15 25 -32 25 -39 0 -7 4 -13 8 -13 4 0
16 -14 26 -32 11 -17 27 -41 37 -52 10 -12 27 -32 38 -45 12 -13 21 -27 21
-31 0 -3 8 -15 18 -26 9 -10 37 -46 62 -79 25 -33 47 -62 51 -65 3 -3 18 -23
34 -45 16 -22 39 -49 50 -60 11 -11 33 -37 48 -58 15 -20 44 -52 63 -71 18
-18 34 -36 34 -40 0 -4 12 -20 28 -35 15 -16 47 -52 72 -82 108 -128 621 -643
689 -691 19 -14 121 -101 155 -133 12 -11 46 -40 76 -65 30 -25 57 -47 60 -50
8 -9 113 -93 144 -115 16 -11 34 -26 41 -33 8 -6 18 -12 23 -12 6 0 12 -4 14
-8 2 -4 23 -23 48 -42 25 -19 47 -37 50 -40 15 -17 151 -110 160 -110 5 0 10
-4 10 -8 0 -5 16 -17 35 -28 19 -10 35 -22 35 -26 0 -5 7 -8 15 -8 8 0 15 -4
15 -9 0 -5 8 -12 18 -15 10 -4 27 -14 38 -24 10 -9 51 -37 89 -62 39 -25 72
-48 73 -52 2 -5 10 -8 17 -8 8 0 20 -6 27 -12 14 -14 43 -31 93 -57 16 -9 32
-19 35 -22 11 -14 174 -109 187 -109 7 0 13 -4 13 -9 0 -5 10 -13 23 -17 12
-4 24 -9 27 -13 5 -6 56 -34 165 -90 28 -14 52 -28 55 -31 10 -11 216 -110
228 -110 6 0 12 -4 12 -10 0 -5 5 -10 11 -10 6 0 43 -16 82 -36 40 -20 93 -44
118 -54 26 -10 68 -28 95 -40 27 -12 63 -28 79 -35 17 -8 55 -25 86 -39 31
-14 59 -26 62 -26 4 0 30 -11 59 -23 29 -13 69 -30 88 -36 19 -7 44 -17 55
-21 11 -4 43 -16 70 -25 28 -9 64 -23 80 -30 17 -7 48 -18 70 -25 22 -7 47
-15 55 -19 8 -4 42 -15 75 -25 33 -11 69 -22 80 -26 49 -19 82 -29 115 -36 19
-3 41 -10 50 -14 8 -5 33 -13 55 -18 22 -6 63 -18 92 -26 28 -9 60 -16 71 -16
10 0 22 -3 26 -7 9 -9 135 -42 164 -42 12 -1 30 -5 40 -10 27 -14 147 -41 181
-41 16 0 32 -4 35 -9 3 -4 25 -11 48 -15 24 -3 79 -13 123 -22 139 -27 339
-60 455 -74 348 -45 354 -45 1195 -45 889 0 937 3 1360 70 55 9 125 20 155 25
50 8 154 28 255 50 22 5 63 13 91 19 50 9 108 23 174 41 19 5 71 18 115 29 44
11 107 27 140 36 33 10 75 21 93 26 17 5 47 13 65 18 17 5 50 15 72 21 39 11
79 24 120 40 11 4 47 15 80 26 33 10 67 21 75 25 8 3 42 15 75 25 33 10 65 20
70 24 6 3 28 12 50 19 22 7 54 19 70 26 17 7 46 18 65 25 31 12 63 24 125 50
11 5 46 20 78 34 32 14 60 26 64 26 3 0 31 12 62 26 31 14 70 31 86 39 17 7
56 25 88 39 32 14 62 26 67 26 6 0 10 5 10 10 0 6 5 10 12 10 12 0 319 149
328 159 3 4 25 16 50 28 44 22 121 64 245 133 53 30 157 92 211 128 10 7 27
15 37 18 9 4 17 10 17 14 0 4 8 10 18 14 17 5 52 26 62 36 7 7 42 29 60 37 22
10 487 338 500 353 3 3 25 21 50 40 25 19 47 37 50 40 3 3 30 23 60 45 30 22
64 48 75 60 11 11 38 33 60 50 22 16 49 39 60 50 18 17 58 53 169 146 100 84
406 384 581 570 105 111 123 131 220 244 33 39 67 77 75 85 18 17 96 114 125
154 19 26 31 41 73 91 9 11 25 33 36 49 10 16 27 39 37 50 60 67 199 260 199
276 0 6 4 10 8 10 5 0 17 16 28 35 10 19 21 35 25 35 3 0 14 16 25 35 10 19
22 35 26 35 5 0 8 7 8 15 0 8 3 15 8 15 4 0 16 17 27 38 26 49 86 146 95 152
4 3 10 15 14 28 4 12 11 22 16 22 4 0 10 8 14 18 5 17 26 52 36 62 4 4 24 39
54 95 6 11 13 22 16 25 3 3 14 23 25 45 11 22 22 42 25 45 3 3 17 28 31 55 43
83 64 120 69 125 10 9 110 218 110 229 0 6 4 11 8 11 4 0 16 22 27 50 11 28
23 50 27 50 4 0 8 4 8 9 0 5 16 43 35 84 19 42 37 87 41 101 3 14 10 26 15 26
5 0 9 6 9 14 0 7 7 27 15 42 8 16 15 37 15 47 0 9 5 17 10 17 6 0 10 7 10 15
0 8 4 23 10 33 5 9 16 34 25 55 8 20 21 52 28 70 8 17 20 48 27 67 6 19 16 44
20 55 4 11 15 40 25 65 10 25 21 54 25 65 29 72 40 108 40 125 0 11 5 20 10
20 6 0 10 8 10 17 0 16 19 74 40 128 5 11 11 29 13 40 3 11 13 45 22 75 9 30
20 69 25 85 5 17 16 55 25 85 24 82 31 107 54 200 12 47 26 101 31 120 18 65
32 124 40 169 5 26 14 66 20 91 11 46 37 180 46 235 3 17 9 48 15 70 5 22 14
78 20 125 6 47 14 112 19 145 46 320 45 299 45 1195 0 764 -2 870 -18 1000
-26 212 -54 398 -77 520 -4 25 -13 72 -19 105 -6 33 -18 92 -27 130 -8 39 -19
90 -24 116 -8 45 -22 103 -40 169 -5 19 -19 73 -31 120 -23 93 -30 118 -54
200 -9 30 -20 69 -25 85 -5 17 -16 55 -25 85 -9 30 -19 67 -22 83 -3 15 -9 27
-14 27 -5 0 -9 9 -9 20 0 17 -9 44 -40 125 -4 11 -15 47 -26 80 -10 33 -21 67
-25 75 -4 8 -15 35 -24 60 -10 25 -21 54 -25 65 -4 11 -14 36 -21 55 -6 19
-23 59 -36 88 -12 29 -23 56 -23 60 0 4 -11 29 -25 56 -14 27 -25 54 -25 59 0
5 -14 39 -31 76 -17 36 -34 75 -38 86 -5 11 -32 68 -60 127 -28 59 -51 112
-51 118 0 5 -4 10 -10 10 -5 0 -10 6 -10 12 0 12 -99 218 -110 228 -5 5 -41
72 -79 145 -9 16 -18 32 -21 35 -3 3 -14 23 -25 45 -11 22 -22 42 -25 45 -4 4
-24 39 -54 95 -6 11 -13 22 -16 25 -7 7 -29 43 -37 60 -4 8 -10 17 -13 20 -4
3 -38 57 -75 120 -38 63 -72 117 -77 118 -4 2 -8 10 -8 18 0 8 -3 14 -8 14 -4
0 -16 16 -26 35 -11 19 -22 35 -25 35 -4 0 -15 16 -25 35 -11 19 -23 35 -28
35 -4 0 -8 5 -8 10 0 15 -165 244 -207 288 -13 13 -23 26 -23 31 0 4 -8 16
-18 27 -9 10 -33 39 -52 64 -42 54 -62 78 -75 94 -6 6 -26 31 -45 56 -19 25
-48 59 -65 75 -17 17 -37 40 -45 51 -28 39 -125 148 -203 228 -43 44 -107 112
-142 151 -36 40 -88 95 -117 122 -29 28 -95 90 -147 139 -190 181 -297 277
-335 304 -12 8 -37 29 -56 48 -19 19 -47 41 -62 50 -16 9 -28 20 -28 24 0 4
-26 26 -57 50 -32 23 -59 45 -61 50 -2 4 -10 8 -17 8 -7 0 -15 3 -17 8 -1 4
-23 23 -48 42 -25 19 -50 39 -56 45 -6 5 -27 21 -47 35 -20 14 -37 28 -37 33
0 4 -5 7 -11 7 -6 0 -17 6 -24 13 -29 25 -43 35 -86 62 -24 15 -96 64 -159
109 -138 97 -150 105 -172 112 -10 4 -18 10 -18 15 0 5 -7 9 -15 9 -8 0 -15 4
-15 10 0 5 -11 12 -25 16 -14 3 -25 9 -25 13 0 4 -18 16 -40 27 -22 10 -40 22
-40 27 0 4 -5 7 -12 7 -6 0 -26 11 -44 25 -18 14 -37 25 -42 25 -6 0 -12 3
-14 8 -1 4 -27 19 -56 34 -69 36 -116 62 -122 68 -3 3 -23 14 -45 25 -22 11
-42 22 -45 25 -3 3 -32 18 -65 35 -33 16 -62 32 -65 35 -3 4 -26 15 -52 26
-27 10 -48 22 -48 27 0 4 -6 7 -13 7 -7 0 -48 18 -92 40 -44 22 -85 40 -92 40
-7 0 -13 4 -13 8 0 4 -22 16 -50 27 -27 11 -50 23 -50 27 0 4 -6 8 -14 8 -7 0
-27 7 -42 15 -16 8 -37 15 -46 15 -10 0 -18 5 -18 10 0 6 -7 10 -15 10 -8 0
-23 4 -33 10 -9 5 -34 16 -54 25 -21 8 -55 22 -75 31 -21 8 -48 20 -60 25 -13
5 -33 13 -45 19 -69 29 -102 40 -119 40 -11 0 -19 5 -19 10 0 6 -9 10 -20 10
-10 0 -36 7 -57 16 -53 23 -71 30 -128 49 -27 9 -58 21 -67 26 -10 5 -29 9
-42 9 -14 0 -27 4 -30 9 -4 5 -24 12 -46 16 -22 4 -42 11 -46 16 -3 5 -14 9
-25 9 -10 0 -27 4 -37 9 -26 15 -118 41 -141 41 -12 0 -21 4 -21 9 0 5 -15 11
-32 13 -39 6 -124 27 -153 39 -11 4 -31 10 -45 13 -53 12 -136 33 -150 39 -8
3 -28 8 -45 10 -120 20 -173 30 -190 37 -11 5 -36 11 -55 14 -19 2 -69 12
-110 21 -41 9 -100 20 -130 25 -30 5 -98 16 -150 25 -86 14 -164 24 -305 40
-27 3 -103 12 -168 20 -66 8 -158 15 -206 15 -49 0 -101 4 -117 9 -39 13 -616
19 -884 10z m890 -170 c228 -15 525 -46 660 -68 30 -5 102 -17 160 -25 138
-21 244 -41 405 -76 22 -5 63 -14 90 -19 69 -15 152 -35 265 -65 52 -13 122
-32 155 -41 91 -23 168 -46 190 -55 11 -5 67 -23 125 -40 58 -17 115 -36 128
-41 13 -5 32 -9 42 -9 11 0 20 -3 20 -7 0 -5 28 -17 63 -27 34 -11 69 -23 77
-27 55 -25 93 -39 110 -39 11 0 20 -4 20 -10 0 -5 9 -10 20 -10 11 0 28 -4 38
-10 9 -5 35 -16 57 -26 22 -9 49 -20 60 -24 11 -5 36 -15 55 -23 19 -8 61 -26
93 -41 32 -14 64 -26 72 -26 8 0 15 -4 15 -8 0 -4 25 -16 55 -27 30 -10 55
-22 55 -27 0 -4 6 -8 13 -8 6 0 71 -29 142 -65 72 -36 135 -65 142 -65 6 0 13
-3 15 -7 2 -5 31 -21 65 -38 35 -16 63 -33 63 -37 0 -5 6 -8 13 -8 7 0 43 -18
81 -40 37 -22 74 -40 82 -40 8 0 14 -4 14 -10 0 -5 7 -10 15 -10 8 0 15 -4 15
-9 0 -5 10 -13 22 -17 12 -3 45 -22 74 -40 29 -19 57 -34 63 -34 5 0 11 -4 13
-8 2 -5 55 -40 118 -77 63 -38 117 -72 118 -77 2 -4 10 -8 18 -8 8 0 14 -4 14
-10 0 -5 11 -12 25 -16 14 -3 25 -9 25 -13 0 -4 15 -15 33 -26 17 -10 34 -22
37 -25 3 -4 25 -19 49 -35 25 -15 53 -36 64 -46 12 -10 29 -21 39 -25 10 -3
18 -10 18 -15 0 -5 7 -9 15 -9 8 0 15 -4 15 -9 0 -5 8 -12 18 -15 10 -4 27
-14 38 -24 10 -9 39 -33 64 -52 25 -19 47 -37 50 -40 3 -3 30 -23 60 -45 30
-22 60 -44 65 -50 6 -6 28 -24 50 -40 22 -16 45 -34 51 -40 37 -34 150 -132
168 -144 12 -8 23 -17 26 -20 3 -3 25 -23 50 -44 54 -46 359 -338 404 -386 17
-18 81 -84 141 -145 95 -97 157 -165 240 -264 11 -14 37 -43 58 -66 21 -22 51
-57 65 -76 15 -19 32 -41 39 -48 7 -7 29 -34 50 -60 21 -26 41 -48 46 -50 4
-2 7 -8 7 -14 0 -5 6 -15 13 -23 6 -7 22 -26 34 -42 12 -15 33 -41 47 -58 14
-16 26 -33 26 -37 0 -4 11 -18 25 -32 14 -14 25 -29 25 -33 0 -5 11 -20 25
-35 14 -15 25 -29 25 -32 0 -3 45 -69 100 -146 55 -77 100 -145 100 -150 0 -6
4 -10 9 -10 5 0 11 -8 15 -17 5 -18 26 -53 36 -63 10 -10 31 -45 36 -62 4 -10
9 -18 13 -18 4 0 15 -17 26 -37 11 -21 22 -40 25 -43 3 -3 14 -22 25 -42 11
-21 22 -38 26 -38 4 0 9 -8 12 -17 3 -10 20 -43 38 -73 28 -49 73 -130 103
-185 6 -11 13 -22 16 -25 11 -11 140 -276 140 -288 0 -6 5 -12 10 -12 6 0 10
-9 10 -19 0 -11 3 -21 8 -23 10 -4 42 -67 42 -83 0 -7 3 -15 8 -17 10 -4 42
-75 42 -93 0 -8 5 -15 10 -15 6 0 10 -7 10 -15 0 -8 12 -40 26 -72 27 -61 45
-101 62 -143 6 -14 22 -51 36 -82 14 -31 26 -64 26 -72 0 -8 5 -18 10 -21 6
-3 10 -13 10 -22 0 -8 7 -31 16 -51 22 -52 30 -70 49 -127 9 -27 20 -59 25
-70 5 -11 16 -45 26 -75 9 -30 20 -64 24 -75 23 -62 40 -122 40 -137 0 -10 5
-18 10 -18 6 0 10 -13 10 -29 0 -17 4 -32 9 -36 6 -3 13 -26 17 -50 3 -25 10
-48 15 -51 5 -3 9 -16 9 -30 0 -13 4 -32 10 -42 8 -15 19 -56 36 -142 3 -14 9
-34 13 -45 13 -32 41 -158 41 -182 0 -12 4 -24 9 -27 4 -3 11 -25 14 -48 8
-61 28 -159 38 -183 4 -11 10 -40 13 -65 3 -25 12 -88 21 -140 9 -52 21 -122
26 -155 12 -71 36 -274 48 -400 5 -49 12 -103 15 -120 3 -16 13 -199 21 -405
16 -363 16 -387 -5 -745 -21 -376 -27 -444 -54 -665 -16 -127 -22 -170 -51
-340 -9 -52 -18 -115 -21 -140 -3 -25 -9 -54 -14 -65 -4 -11 -16 -63 -25 -115
-9 -52 -21 -103 -26 -112 -5 -10 -9 -26 -9 -35 0 -23 -29 -151 -40 -178 -5
-11 -11 -31 -14 -45 -17 -86 -28 -127 -36 -142 -6 -10 -10 -29 -10 -42 0 -14
-4 -27 -9 -30 -5 -3 -12 -26 -15 -51 -4 -24 -11 -47 -17 -50 -5 -4 -9 -19 -9
-34 0 -15 -4 -31 -8 -36 -4 -6 -16 -37 -26 -70 -10 -33 -22 -69 -26 -80 -4
-11 -15 -45 -24 -75 -10 -30 -21 -64 -26 -75 -5 -11 -16 -42 -25 -70 -19 -57
-27 -75 -49 -127 -9 -20 -16 -41 -16 -47 0 -6 -4 -20 -10 -31 -5 -11 -14 -29
-20 -40 -5 -11 -10 -25 -10 -31 0 -7 -12 -37 -26 -68 -14 -31 -31 -69 -39 -86
-7 -16 -25 -56 -39 -88 -14 -32 -26 -61 -26 -65 0 -5 -11 -32 -25 -60 -14 -29
-25 -56 -25 -62 0 -5 -4 -10 -10 -10 -5 0 -10 -5 -10 -11 0 -7 -34 -80 -75
-164 -41 -84 -75 -158 -75 -164 0 -6 -3 -11 -8 -11 -4 0 -16 -20 -27 -45 -11
-25 -22 -45 -25 -45 -3 0 -14 -20 -25 -45 -11 -25 -22 -45 -25 -45 -3 0 -14
-20 -25 -45 -11 -25 -23 -45 -27 -45 -5 0 -8 -9 -8 -20 0 -11 -4 -20 -10 -20
-5 0 -12 -11 -16 -25 -3 -14 -10 -25 -15 -25 -5 0 -9 -7 -9 -15 0 -8 -3 -15
-8 -15 -4 0 -16 -17 -27 -37 -22 -42 -116 -195 -125 -203 -3 -3 -14 -22 -25
-42 -11 -21 -23 -38 -27 -38 -5 0 -8 -4 -8 -10 0 -5 -45 -73 -100 -150 -55
-77 -100 -145 -100 -150 0 -6 -4 -10 -9 -10 -5 0 -12 -8 -15 -17 -3 -10 -19
-34 -36 -53 -16 -19 -30 -38 -30 -42 0 -4 -10 -17 -23 -30 -12 -13 -43 -50
-67 -83 -25 -33 -55 -71 -67 -85 -13 -14 -23 -29 -23 -33 0 -5 -16 -23 -35
-41 -19 -19 -35 -37 -35 -40 0 -4 -6 -13 -12 -20 -43 -44 -88 -96 -88 -101 0
-4 -15 -21 -33 -38 -18 -18 -49 -53 -70 -79 -20 -25 -83 -93 -139 -151 -57
-57 -133 -135 -169 -173 -94 -97 -359 -351 -389 -371 -13 -10 -38 -31 -55 -48
-16 -17 -39 -37 -51 -45 -21 -15 -105 -87 -177 -152 -23 -21 -46 -38 -51 -38
-5 0 -19 -11 -32 -25 -13 -14 -28 -25 -34 -25 -5 0 -10 -3 -10 -7 0 -5 -17
-19 -37 -33 -20 -14 -41 -30 -47 -35 -6 -6 -31 -26 -56 -45 -25 -19 -46 -38
-48 -42 -2 -5 -8 -8 -13 -8 -9 0 -21 -8 -54 -38 -7 -6 -18 -12 -24 -12 -6 0
-11 -3 -11 -8 0 -4 -16 -16 -35 -26 -19 -11 -35 -23 -35 -28 0 -4 -5 -8 -10
-8 -6 0 -35 -18 -65 -40 -30 -22 -59 -40 -65 -40 -5 0 -10 -4 -10 -8 0 -5 -16
-17 -35 -28 -19 -10 -35 -22 -35 -26 0 -5 -7 -8 -15 -8 -8 0 -15 -3 -15 -8 0
-4 -17 -16 -37 -27 -42 -22 -195 -116 -203 -125 -3 -3 -22 -14 -42 -25 -21
-11 -38 -23 -38 -27 0 -5 -9 -8 -19 -8 -11 0 -21 -3 -23 -7 -1 -5 -16 -15 -33
-24 -74 -38 -140 -74 -145 -79 -3 -3 -23 -14 -45 -25 -22 -11 -42 -22 -45 -25
-10 -11 -275 -140 -287 -140 -6 0 -13 -3 -15 -7 -5 -12 -218 -113 -237 -113
-6 0 -11 -3 -11 -8 0 -4 -27 -16 -60 -26 -33 -11 -60 -23 -60 -28 0 -4 -6 -8
-14 -8 -7 0 -27 -7 -42 -15 -16 -8 -37 -15 -46 -15 -10 0 -18 -4 -18 -10 0 -5
-7 -10 -15 -10 -8 0 -23 -4 -33 -9 -44 -24 -87 -41 -104 -41 -10 0 -18 -4 -18
-10 0 -5 -9 -10 -20 -10 -17 0 -46 -11 -110 -39 -8 -4 -42 -16 -75 -26 -33
-11 -62 -23 -65 -26 -3 -3 -16 -9 -30 -12 -54 -13 -115 -32 -120 -38 -3 -3
-16 -9 -30 -12 -55 -12 -116 -29 -135 -37 -11 -4 -47 -16 -80 -25 -33 -10 -70
-22 -83 -26 -13 -5 -32 -9 -43 -9 -10 0 -27 -4 -37 -10 -15 -8 -56 -19 -142
-36 -14 -3 -34 -9 -45 -13 -35 -14 -152 -41 -179 -41 -13 0 -27 -4 -30 -9 -3
-4 -27 -11 -53 -14 -60 -7 -162 -27 -188 -38 -11 -4 -40 -10 -65 -13 -25 -3
-88 -12 -140 -21 -219 -37 -409 -61 -590 -75 -58 -4 -166 -13 -240 -19 -176
-15 -944 -15 -1130 0 -80 6 -192 14 -250 19 -58 4 -168 16 -245 25 -77 9 -160
18 -185 21 -25 3 -52 8 -60 11 -16 7 -148 28 -235 39 -27 3 -59 9 -70 13 -26
11 -127 31 -187 38 -27 3 -48 9 -48 14 0 5 -12 9 -27 9 -29 0 -152 27 -188 41
-11 4 -31 10 -45 13 -102 22 -140 32 -146 39 -4 4 -18 7 -30 7 -13 0 -33 4
-46 9 -13 4 -50 16 -83 26 -33 9 -69 21 -80 25 -11 5 -47 16 -80 25 -33 9 -69
20 -80 25 -11 4 -47 15 -80 25 -33 10 -64 22 -70 25 -5 4 -38 16 -72 26 -35
10 -63 22 -63 27 0 4 -8 7 -19 7 -10 0 -32 7 -47 15 -16 8 -39 15 -51 15 -13
0 -23 5 -23 10 0 6 -11 10 -25 10 -14 0 -25 5 -25 10 0 6 -8 10 -17 10 -10 0
-31 7 -47 15 -15 8 -35 15 -42 15 -8 0 -14 4 -14 8 0 5 -27 17 -60 28 -33 10
-60 22 -60 25 0 4 -11 10 -25 13 -25 6 -97 38 -221 97 -34 16 -67 29 -73 29
-6 0 -11 5 -11 10 0 6 -9 10 -20 10 -11 0 -20 5 -20 10 0 6 -4 10 -10 10 -17
0 -90 34 -90 42 0 5 -5 8 -12 8 -13 0 -179 80 -188 91 -3 3 -39 24 -80 46 -41
22 -91 49 -110 60 -19 11 -56 31 -81 46 -26 14 -119 71 -208 126 -89 56 -166
101 -171 101 -6 0 -10 4 -10 9 0 5 -8 12 -18 15 -10 4 -27 14 -38 24 -29 25
-144 102 -154 102 -5 0 -10 3 -12 8 -1 4 -46 38 -98 76 -52 38 -96 73 -98 77
-2 5 -10 9 -18 9 -8 0 -14 3 -14 8 0 4 -17 18 -37 32 -20 14 -41 30 -47 35 -6
6 -31 26 -56 45 -25 19 -46 38 -48 42 -2 5 -8 8 -13 8 -10 0 -14 3 -73 55 -71
63 -152 132 -230 199 -134 113 -620 592 -706 696 -25 30 -54 65 -66 76 -11 12
-38 43 -60 70 -21 26 -50 60 -64 75 -28 29 -39 42 -90 109 -19 25 -37 47 -41
50 -3 3 -18 23 -35 45 -29 39 -43 56 -83 104 -12 13 -21 27 -21 31 0 3 -8 15
-19 26 -29 31 -171 234 -171 244 0 4 -4 10 -9 12 -5 2 -39 48 -75 103 -36 55
-70 105 -76 112 -5 7 -10 17 -10 23 0 5 -4 10 -9 10 -5 0 -13 10 -17 23 -4 12
-9 24 -13 27 -3 3 -11 14 -18 25 -46 78 -97 161 -102 165 -3 3 -13 19 -22 35
-39 77 -74 140 -80 145 -3 3 -13 23 -23 45 -11 22 -22 42 -25 45 -14 12 -161
302 -161 319 0 6 -4 11 -10 11 -5 0 -10 6 -10 13 0 7 -22 55 -48 107 -26 52
-54 111 -61 130 -8 19 -25 59 -38 88 -12 29 -23 55 -23 59 0 3 -12 31 -26 62
-48 104 -60 135 -114 281 -43 115 -52 141 -69 183 -5 12 -17 49 -27 82 -9 33
-21 65 -25 70 -3 6 -10 29 -14 52 -4 24 -11 45 -16 49 -5 3 -9 14 -9 25 0 10
-4 27 -9 37 -12 24 -38 113 -76 262 -10 36 -21 74 -25 85 -5 11 -11 31 -13 45
-3 14 -13 57 -22 95 -28 119 -35 148 -51 225 -8 41 -19 95 -25 120 -5 25 -17
86 -25 135 -9 50 -20 113 -24 140 -51 287 -84 624 -102 1030 -15 356 -15 338
0 680 19 408 53 761 102 1030 5 28 15 91 23 140 7 50 16 97 19 105 4 8 9 29
12 45 3 17 12 66 21 110 9 44 21 98 25 120 9 44 49 198 74 285 9 30 19 72 23
93 3 21 10 40 14 43 5 3 9 14 9 26 0 21 26 109 41 140 5 10 9 27 9 37 0 11 4
22 9 25 5 4 12 25 16 49 4 23 11 47 14 52 4 6 16 37 26 70 10 33 21 64 26 70
5 5 9 17 9 27 0 10 4 26 9 36 5 9 17 37 26 62 10 25 21 54 25 65 5 11 16 43
25 70 10 28 28 74 41 103 13 29 24 59 24 67 0 8 5 15 10 15 6 0 10 7 10 15 0
8 4 23 10 33 13 24 60 132 60 138 0 8 23 58 81 180 27 55 49 106 49 112 0 7 3
12 8 12 4 0 16 21 26 48 11 26 22 49 26 52 3 3 14 25 25 50 11 25 22 47 25 50
3 3 17 28 31 55 15 28 39 75 55 105 16 30 31 57 34 60 3 3 13 21 24 40 38 71
68 122 126 215 33 52 60 97 60 100 0 3 5 11 10 18 20 22 140 211 140 219 0 4
4 8 8 8 5 0 17 16 28 35 10 19 21 35 24 35 3 0 14 16 24 35 11 19 23 35 28 35
4 0 8 7 8 15 0 8 4 15 9 15 5 0 12 8 15 18 4 10 14 27 24 38 9 10 25 32 35 47
10 16 25 36 32 45 15 18 80 100 93 117 4 6 21 28 37 50 17 22 32 42 35 45 3 3
34 41 70 85 35 44 74 91 87 105 12 14 30 34 40 46 144 170 187 216 413 443
207 208 339 334 435 416 32 28 75 64 94 81 20 17 47 39 60 50 14 10 45 38 70
62 25 23 51 42 57 42 7 0 14 3 16 8 2 4 30 29 63 55 33 26 68 54 77 62 9 7 25
18 36 24 11 6 26 17 34 24 7 7 40 33 73 57 33 25 62 48 65 51 3 3 20 14 38 24
17 11 32 23 32 27 0 4 4 8 9 8 9 0 174 111 208 140 7 5 17 10 23 10 5 0 10 4
10 8 0 5 12 14 28 21 15 7 91 53 169 102 79 49 147 89 152 89 5 0 11 3 13 8 3
7 29 22 123 71 28 14 52 28 55 31 3 3 23 14 45 25 22 11 42 22 45 25 6 6 337
170 395 196 22 10 42 21 45 24 3 3 21 12 40 20 19 7 59 24 88 37 29 12 55 23
58 23 3 0 30 11 59 25 30 13 66 27 80 31 14 3 25 10 25 15 0 5 6 9 14 9 7 0
27 7 42 15 16 8 37 15 46 15 9 0 20 5 23 10 3 6 15 10 26 10 10 0 19 4 19 9 0
4 15 11 33 14 18 3 53 14 78 25 24 11 67 28 94 37 28 9 59 21 70 25 11 5 61
21 110 35 50 15 97 31 106 35 9 5 34 12 55 16 22 3 44 10 49 14 6 3 28 11 50
18 22 6 63 18 92 26 28 9 59 16 68 16 8 0 23 4 33 10 9 5 37 14 62 19 25 5 63
15 85 21 47 13 153 38 213 51 23 5 61 13 85 18 167 37 221 47 407 76 58 9 130
21 160 26 71 11 297 38 425 49 55 5 118 12 140 15 143 22 895 24 1215 4z"/>
<path d="M13375 21700 c-33 -4 -106 -8 -162 -9 -90 -1 -306 -18 -443 -36 -25
-3 -79 -10 -120 -15 -75 -9 -232 -33 -325 -50 -108 -19 -232 -41 -265 -46 -19
-3 -44 -9 -55 -14 -23 -9 -122 -30 -177 -37 -21 -3 -38 -9 -38 -14 0 -5 -9 -9
-21 -9 -23 0 -146 -29 -169 -39 -8 -4 -52 -16 -97 -27 -46 -10 -83 -22 -83
-26 0 -5 -13 -8 -29 -8 -17 0 -32 -4 -36 -9 -3 -6 -26 -13 -50 -17 -25 -3 -48
-10 -51 -15 -3 -5 -16 -9 -29 -9 -13 0 -26 -4 -29 -9 -4 -5 -24 -12 -46 -16
-22 -4 -42 -11 -46 -16 -3 -5 -15 -9 -28 -9 -12 0 -26 -4 -32 -8 -5 -5 -37
-17 -71 -28 -35 -10 -63 -22 -63 -26 0 -5 -9 -8 -20 -8 -17 0 -66 -18 -112
-41 -10 -5 -22 -9 -28 -9 -6 0 -33 -11 -62 -25 -28 -14 -55 -25 -60 -25 -4 0
-33 -12 -65 -26 -32 -15 -74 -33 -93 -41 -62 -26 -74 -31 -182 -82 -59 -28
-112 -51 -118 -51 -5 0 -10 -4 -10 -10 0 -5 -6 -10 -12 -10 -12 0 -218 -99
-228 -110 -3 -3 -23 -14 -45 -25 -22 -11 -42 -22 -45 -25 -3 -3 -29 -17 -58
-32 -69 -36 -116 -62 -122 -68 -3 -3 -24 -14 -47 -25 -24 -11 -43 -23 -43 -27
0 -5 -7 -8 -15 -8 -8 0 -15 -4 -15 -9 0 -5 -10 -13 -22 -17 -13 -4 -25 -9 -28
-13 -6 -7 -16 -14 -115 -72 -38 -23 -72 -45 -75 -48 -8 -10 -44 -31 -62 -37
-10 -4 -18 -10 -18 -14 0 -4 -16 -15 -35 -26 -19 -10 -35 -21 -35 -25 0 -3
-16 -14 -35 -25 -19 -10 -35 -22 -35 -26 0 -5 -7 -8 -15 -8 -8 0 -15 -4 -15
-9 0 -5 -8 -12 -18 -15 -10 -4 -27 -14 -38 -24 -10 -9 -46 -37 -79 -62 -33
-25 -71 -55 -85 -67 -14 -13 -28 -23 -33 -23 -4 0 -18 -9 -30 -21 -12 -12 -47
-40 -77 -63 -30 -22 -61 -46 -68 -53 -7 -7 -34 -29 -60 -50 -26 -21 -60 -51
-77 -68 -16 -17 -39 -37 -51 -45 -57 -40 -159 -135 -401 -371 -160 -157 -383
-396 -422 -453 -8 -12 -29 -34 -46 -51 -17 -16 -38 -40 -46 -53 -9 -12 -33
-40 -53 -62 -20 -21 -36 -42 -36 -45 0 -3 -11 -18 -25 -33 -14 -15 -25 -31
-25 -35 0 -5 -12 -21 -28 -36 -15 -15 -38 -44 -52 -64 -14 -20 -28 -37 -32
-37 -5 0 -8 -6 -8 -14 0 -8 -4 -16 -9 -18 -4 -1 -45 -55 -90 -118 -44 -63 -88
-124 -97 -135 -9 -11 -21 -30 -27 -42 -5 -13 -14 -23 -19 -23 -4 0 -8 -5 -8
-10 0 -6 -15 -32 -33 -58 -18 -26 -41 -64 -52 -84 -11 -21 -23 -38 -27 -38 -5
0 -8 -7 -8 -15 0 -8 -4 -15 -10 -15 -5 0 -12 -11 -16 -25 -3 -14 -10 -25 -14
-25 -4 0 -10 -8 -14 -17 -3 -10 -26 -49 -50 -88 -25 -38 -45 -76 -46 -82 0 -7
-4 -13 -8 -13 -5 0 -17 -19 -28 -42 -10 -24 -21 -45 -24 -48 -3 -3 -17 -27
-31 -55 -49 -94 -64 -120 -71 -123 -5 -2 -8 -12 -8 -23 0 -10 -4 -19 -8 -19
-4 0 -16 -22 -27 -50 -11 -27 -22 -50 -25 -50 -3 0 -14 -22 -25 -50 -11 -27
-23 -50 -27 -50 -4 0 -8 -5 -8 -12 0 -6 -18 -50 -41 -97 -22 -47 -44 -95 -49
-106 -15 -37 -42 -100 -61 -139 -11 -22 -19 -43 -19 -48 0 -4 -11 -31 -24 -60
-21 -48 -45 -107 -66 -163 -4 -11 -15 -37 -24 -58 -9 -21 -16 -47 -16 -57 0
-11 -4 -20 -10 -20 -5 0 -10 -8 -10 -19 0 -10 -7 -32 -15 -47 -8 -16 -15 -37
-15 -46 0 -9 -4 -20 -10 -23 -6 -3 -10 -17 -10 -30 0 -13 -4 -26 -9 -30 -6 -3
-13 -26 -17 -50 -3 -25 -10 -48 -15 -51 -5 -3 -9 -14 -9 -25 0 -10 -4 -27 -9
-37 -6 -9 -17 -44 -26 -77 -10 -33 -21 -69 -25 -80 -5 -11 -18 -57 -29 -102
-12 -46 -30 -120 -42 -165 -11 -46 -24 -92 -29 -103 -5 -11 -11 -38 -14 -60
-3 -22 -13 -71 -22 -110 -36 -161 -62 -301 -70 -380 -3 -27 -9 -59 -14 -70
-11 -26 -33 -208 -67 -545 -25 -253 -25 -1166 0 -1420 23 -227 32 -311 52
-445 16 -112 20 -137 50 -305 9 -52 19 -108 21 -125 3 -16 9 -39 14 -50 4 -11
13 -49 20 -85 6 -36 15 -83 20 -105 12 -59 50 -207 59 -230 5 -11 16 -54 26
-95 9 -41 20 -84 25 -95 4 -11 16 -47 25 -80 10 -33 21 -68 26 -77 5 -10 9
-27 9 -37 0 -11 4 -22 9 -25 5 -3 12 -26 15 -51 4 -24 11 -47 17 -50 5 -4 9
-17 9 -30 0 -13 5 -27 10 -30 6 -3 10 -14 10 -23 0 -9 7 -30 15 -46 8 -15 15
-37 15 -47 0 -11 5 -19 10 -19 6 0 10 -9 10 -20 0 -10 7 -36 16 -57 18 -41 25
-60 45 -113 6 -19 23 -59 36 -88 12 -29 23 -55 23 -58 0 -3 9 -26 21 -52 11
-26 30 -67 41 -92 11 -25 23 -54 28 -65 4 -11 26 -58 49 -105 22 -47 41 -91
41 -98 0 -6 3 -12 8 -12 4 0 16 -21 26 -48 11 -26 22 -49 26 -52 3 -3 14 -25
25 -50 11 -25 22 -47 25 -50 3 -3 18 -32 35 -65 16 -33 32 -62 35 -65 3 -3 14
-23 25 -45 11 -22 22 -42 25 -45 3 -3 17 -29 32 -58 36 -69 62 -116 68 -122 9
-9 55 -84 75 -122 11 -21 23 -38 27 -38 5 0 8 -7 8 -15 0 -8 4 -15 9 -15 5 0
12 -11 15 -25 4 -14 11 -25 16 -25 6 0 10 -7 10 -15 0 -8 5 -15 10 -15 6 0 10
-5 10 -10 0 -9 76 -127 90 -140 3 -3 25 -34 49 -70 25 -36 48 -66 53 -68 4 -2
8 -8 8 -13 0 -10 93 -141 123 -174 10 -11 26 -32 35 -47 9 -16 19 -28 23 -28
3 0 21 -22 40 -50 19 -27 37 -50 42 -50 4 0 7 -6 7 -14 0 -8 3 -16 8 -18 4 -1
28 -28 52 -58 25 -30 59 -68 75 -85 17 -16 37 -39 45 -51 38 -54 316 -351 422
-451 20 -20 90 -88 156 -152 65 -64 130 -125 144 -136 30 -24 132 -112 162
-140 12 -11 46 -40 76 -65 30 -25 57 -47 60 -50 3 -3 32 -25 65 -50 33 -25 70
-55 83 -67 13 -13 26 -23 31 -23 4 0 16 -8 27 -18 10 -9 39 -33 64 -52 25 -19
47 -38 48 -42 2 -5 10 -8 18 -8 8 0 14 -3 14 -8 0 -4 16 -16 35 -26 19 -11 35
-23 35 -28 0 -4 5 -8 11 -8 9 0 74 -44 89 -60 3 -3 30 -21 60 -40 30 -19 57
-38 58 -42 2 -5 10 -8 17 -8 7 0 15 -4 17 -8 2 -5 55 -39 118 -77 63 -37 117
-71 120 -74 7 -8 39 -27 80 -48 19 -9 37 -19 40 -22 5 -6 68 -41 145 -80 16
-9 32 -18 35 -21 3 -3 23 -14 45 -25 22 -11 42 -23 45 -26 8 -9 176 -89 187
-89 6 0 13 -3 15 -7 2 -5 28 -20 58 -34 89 -43 213 -101 245 -115 17 -7 55
-23 85 -37 30 -13 127 -52 215 -87 207 -81 192 -75 250 -95 28 -9 59 -21 70
-25 11 -5 45 -17 75 -26 30 -8 64 -19 75 -24 11 -4 47 -16 80 -25 33 -10 68
-21 77 -26 10 -5 25 -9 33 -9 8 0 23 -4 33 -10 9 -5 37 -14 62 -19 25 -5 61
-14 80 -20 68 -19 155 -42 180 -47 14 -3 34 -9 45 -14 29 -11 166 -40 193 -40
12 0 30 -4 40 -9 9 -5 58 -16 107 -25 50 -8 104 -18 120 -21 231 -47 634 -96
955 -117 237 -15 723 -15 960 0 297 19 603 55 875 102 188 33 225 40 270 50
28 6 70 15 95 20 132 26 357 83 366 93 4 4 16 7 26 7 11 0 43 7 71 15 29 9 68
20 87 26 19 6 44 14 55 18 11 5 47 16 80 26 33 9 69 21 80 25 11 5 45 16 75
25 49 14 158 53 215 75 11 5 65 25 120 45 55 21 124 48 153 61 29 13 55 24 57
24 3 0 28 11 57 25 28 14 55 25 60 25 11 0 98 41 304 141 99 49 186 89 192 89
7 0 12 3 12 8 0 4 10 12 23 18 32 15 176 94 217 118 19 12 61 35 93 51 31 16
57 33 57 37 0 4 7 8 15 8 8 0 15 4 15 9 0 5 11 12 25 15 14 4 25 11 25 16 0 6
4 10 9 10 15 0 278 168 327 209 6 5 30 21 55 36 24 16 46 31 49 35 3 3 20 15
38 25 17 11 32 23 32 27 0 4 6 8 13 8 7 0 23 10 37 23 14 12 52 42 85 67 33
25 62 47 65 51 3 3 23 18 45 34 22 17 42 32 45 35 3 3 25 21 50 40 38 30 72
58 124 105 6 6 27 24 47 40 117 98 153 130 247 220 272 259 568 569 632 659 8
12 24 30 35 41 25 24 123 141 150 179 20 27 37 49 75 93 10 12 27 34 37 50 20
31 35 50 76 98 15 18 27 36 27 39 0 4 5 12 11 19 33 38 187 265 273 403 56 88
107 169 114 180 6 10 15 26 19 34 4 8 9 17 12 20 3 3 13 19 22 35 39 76 74
140 79 145 3 3 14 23 25 45 11 22 23 42 26 45 10 9 209 416 209 428 0 7 4 12
8 12 4 0 14 17 21 38 7 20 24 61 37 90 13 29 24 56 24 60 0 4 11 28 24 55 14
26 27 61 31 77 4 17 11 30 16 30 5 0 9 7 9 15 0 8 4 23 9 33 5 9 28 69 51 132
23 63 45 124 50 135 22 54 40 112 40 128 0 9 5 17 10 17 6 0 10 8 10 18 0 15
20 84 40 137 5 11 16 47 25 80 9 33 20 69 25 80 8 18 40 140 60 225 4 19 16
62 25 95 10 33 21 79 26 103 5 23 13 61 18 85 5 23 16 74 23 114 7 39 17 75
21 79 4 4 7 21 7 38 0 17 4 47 10 66 5 19 14 69 20 110 6 41 15 100 20 130 9
51 28 203 50 400 45 407 45 1196 0 1620 -18 170 -40 346 -49 400 -16 88 -21
119 -37 225 -9 55 -19 109 -24 120 -4 11 -15 63 -25 115 -9 52 -21 109 -25
125 -5 17 -17 66 -26 110 -10 44 -21 84 -26 90 -4 5 -8 18 -8 29 0 11 -4 33
-10 50 -5 17 -17 58 -25 91 -19 71 -64 221 -75 250 -4 11 -15 47 -25 80 -9 33
-21 69 -25 80 -5 11 -16 43 -25 70 -10 28 -21 59 -25 70 -5 11 -20 54 -35 95
-15 41 -33 89 -41 107 -8 17 -14 38 -14 46 0 9 -4 19 -10 22 -5 3 -10 15 -10
26 0 10 -4 19 -9 19 -5 0 -12 13 -16 30 -4 16 -17 51 -31 77 -13 27 -24 51
-24 55 0 7 -9 29 -72 168 -42 94 -73 155 -80 158 -5 2 -8 9 -8 15 0 12 -129
277 -140 287 -3 3 -14 23 -25 45 -11 22 -22 42 -25 45 -5 5 -42 73 -79 145 -9
16 -19 32 -22 35 -3 3 -27 42 -54 88 -26 45 -53 88 -60 95 -7 7 -16 23 -19 35
-4 12 -12 22 -17 22 -5 0 -9 7 -9 15 0 8 -3 15 -8 15 -4 0 -13 13 -20 30 -18
39 -257 382 -322 460 -8 10 -24 31 -35 46 -28 39 -81 105 -105 131 -11 12 -20
26 -20 30 0 4 -20 29 -43 54 -23 26 -51 57 -61 70 -50 62 -164 192 -261 296
-141 152 -517 523 -530 523 -4 0 -22 15 -39 33 -17 17 -56 52 -86 77 -87 71
-102 84 -124 105 -12 11 -39 34 -61 50 -22 16 -44 34 -50 39 -5 6 -28 24 -50
40 -22 17 -42 32 -45 36 -3 3 -32 25 -65 50 -33 24 -69 52 -79 62 -11 10 -23
18 -26 18 -4 0 -20 11 -36 25 -16 14 -37 28 -46 31 -10 3 -18 10 -18 15 0 5
-7 9 -15 9 -8 0 -15 3 -15 8 0 4 -16 16 -35 26 -19 11 -35 22 -35 25 0 4 -16
15 -35 25 -19 11 -35 22 -35 26 0 4 -8 10 -17 14 -18 5 -54 26 -63 36 -12 14
-170 110 -179 110 -6 0 -11 4 -11 9 0 5 -8 11 -17 15 -20 6 -55 27 -63 37 -5
6 -92 54 -210 115 -30 16 -57 31 -60 34 -4 4 -39 24 -95 54 -11 6 -22 14 -25
17 -3 3 -26 14 -52 25 -27 10 -48 22 -48 27 0 4 -7 7 -14 7 -8 0 -50 18 -92
40 -43 22 -83 40 -91 40 -7 0 -13 5 -13 10 0 6 -4 10 -10 10 -5 0 -35 12 -67
26 -55 25 -78 36 -185 83 -26 12 -49 21 -52 21 -3 0 -29 11 -58 23 -29 13 -69
30 -88 37 -19 7 -53 20 -75 30 -22 10 -51 21 -65 24 -14 4 -34 11 -45 16 -11
5 -42 16 -70 25 -27 10 -59 21 -70 26 -11 4 -45 15 -75 24 -30 9 -63 21 -72
26 -10 5 -25 9 -33 9 -8 0 -23 4 -33 9 -9 6 -44 17 -77 26 -33 10 -69 20 -80
25 -43 16 -133 40 -153 40 -11 0 -23 4 -26 9 -3 5 -20 11 -38 13 -39 6 -125
27 -153 39 -11 4 -33 10 -50 13 -66 12 -161 33 -175 38 -8 4 -28 9 -45 12 -16
2 -70 12 -120 21 -49 8 -110 18 -135 21 -25 3 -54 9 -65 14 -24 10 -131 24
-485 64 -283 33 -983 55 -1125 36z m735 -166 c405 -23 759 -68 1105 -139 283
-58 360 -76 380 -84 11 -5 31 -12 45 -15 52 -11 136 -33 150 -38 8 -4 47 -14
85 -23 39 -9 79 -21 90 -25 33 -13 77 -27 140 -46 33 -9 64 -21 69 -26 6 -4
18 -8 27 -8 14 0 173 -56 254 -90 11 -5 43 -16 70 -25 28 -10 68 -25 90 -35
22 -10 81 -34 130 -55 102 -42 126 -52 243 -107 45 -21 87 -38 92 -38 6 0 10
-4 10 -8 0 -4 23 -16 50 -27 28 -11 50 -23 50 -27 0 -4 6 -8 12 -8 12 0 177
-79 188 -90 5 -5 83 -48 165 -89 28 -14 52 -29 55 -32 3 -3 25 -17 50 -31 25
-14 102 -60 170 -103 69 -43 134 -83 145 -89 24 -13 138 -89 145 -96 17 -18
80 -60 89 -60 6 0 11 -4 11 -8 0 -4 15 -16 33 -27 17 -10 34 -21 37 -24 3 -3
32 -26 65 -51 33 -25 69 -53 79 -62 11 -10 23 -18 27 -18 4 0 14 -6 21 -12 11
-11 83 -70 148 -121 29 -23 125 -102 136 -112 46 -42 151 -132 166 -143 24
-17 279 -265 372 -361 39 -40 105 -108 146 -151 76 -78 169 -182 205 -229 10
-14 28 -35 40 -46 11 -11 34 -38 50 -60 17 -22 40 -49 53 -61 12 -12 22 -24
22 -28 0 -4 6 -13 13 -20 31 -33 57 -67 57 -75 0 -5 3 -11 8 -13 4 -1 23 -23
42 -48 19 -25 37 -47 40 -50 16 -14 110 -151 110 -160 0 -5 4 -10 8 -10 5 0
17 -16 28 -35 10 -19 21 -35 25 -35 3 0 14 -16 25 -35 10 -19 22 -35 26 -35 5
0 8 -7 8 -15 0 -8 4 -15 9 -15 5 0 12 -8 15 -18 4 -10 14 -27 24 -38 9 -10 26
-36 37 -56 11 -21 23 -38 26 -38 4 0 10 -11 13 -25 4 -14 11 -25 16 -25 6 0
10 -7 10 -15 0 -8 5 -15 10 -15 6 0 10 -5 10 -10 0 -6 27 -53 59 -104 33 -52
67 -111 77 -133 10 -21 20 -40 23 -43 4 -3 15 -23 26 -45 11 -22 22 -42 25
-45 3 -3 14 -23 25 -45 11 -22 22 -42 25 -45 10 -9 110 -218 110 -229 0 -6 5
-11 10 -11 6 0 10 -6 10 -12 0 -7 18 -49 40 -93 22 -44 40 -86 40 -92 0 -7 5
-13 10 -13 6 0 10 -7 10 -15 0 -8 11 -38 25 -67 14 -28 25 -55 25 -60 0 -4 12
-33 26 -65 14 -32 30 -67 34 -78 5 -11 15 -36 23 -55 8 -19 27 -69 42 -110 14
-41 30 -83 36 -92 5 -10 9 -23 9 -29 0 -6 7 -27 16 -47 23 -53 29 -70 49 -137
9 -33 21 -69 25 -80 21 -57 40 -122 40 -137 0 -10 3 -18 8 -18 4 0 16 -37 26
-82 11 -46 23 -87 28 -93 4 -5 8 -24 8 -41 0 -18 4 -35 9 -38 5 -4 12 -29 16
-56 4 -27 11 -52 16 -56 5 -3 9 -20 9 -38 0 -18 3 -36 7 -40 8 -7 26 -93 39
-184 4 -23 11 -45 15 -48 5 -3 9 -20 9 -37 0 -18 7 -57 15 -87 8 -30 15 -74
15 -97 0 -23 5 -45 10 -48 6 -3 10 -25 10 -48 0 -23 5 -62 11 -87 6 -25 15
-83 20 -130 6 -47 14 -119 19 -160 5 -41 14 -147 20 -235 6 -88 15 -196 21
-240 21 -164 0 -1025 -30 -1230 -6 -38 -13 -92 -16 -120 -12 -130 -24 -224
-34 -265 -6 -25 -11 -64 -11 -87 0 -23 -4 -45 -10 -48 -5 -3 -10 -20 -10 -37
0 -35 -29 -193 -41 -223 -4 -11 -10 -38 -13 -60 -14 -89 -31 -174 -39 -181 -4
-4 -7 -22 -7 -40 0 -18 -4 -36 -10 -39 -5 -3 -10 -14 -10 -24 0 -10 -7 -43
-16 -72 -8 -30 -19 -70 -24 -89 -16 -63 -42 -155 -50 -175 -4 -11 -15 -47 -25
-80 -9 -33 -21 -69 -25 -80 -5 -11 -16 -45 -25 -75 -9 -30 -20 -64 -25 -75 -5
-11 -16 -42 -25 -70 -10 -27 -21 -60 -26 -72 -5 -13 -13 -33 -18 -45 -5 -13
-17 -45 -26 -73 -9 -27 -25 -68 -35 -90 -10 -22 -32 -76 -50 -120 -18 -44 -37
-84 -41 -89 -5 -6 -9 -16 -9 -23 0 -24 -247 -535 -262 -541 -4 -2 -8 -10 -8
-17 0 -7 -18 -44 -40 -81 -22 -38 -40 -74 -40 -81 0 -7 -4 -13 -10 -13 -5 0
-10 -7 -10 -15 0 -8 -3 -15 -7 -15 -5 0 -17 -20 -28 -45 -11 -25 -22 -45 -26
-45 -4 0 -9 -8 -13 -18 -6 -18 -27 -53 -37 -62 -3 -3 -8 -12 -12 -20 -8 -17
-30 -53 -37 -60 -3 -3 -14 -23 -25 -45 -11 -22 -23 -42 -26 -45 -3 -3 -19 -25
-34 -50 -16 -24 -34 -51 -42 -58 -7 -7 -13 -20 -13 -28 0 -8 -4 -14 -8 -14 -5
0 -17 -16 -28 -35 -10 -19 -22 -35 -26 -35 -5 0 -8 -7 -8 -15 0 -8 -4 -15 -8
-15 -5 0 -17 -16 -28 -35 -10 -19 -21 -35 -25 -35 -3 0 -14 -16 -25 -35 -10
-19 -22 -35 -26 -35 -5 0 -8 -6 -8 -14 0 -8 -3 -16 -8 -18 -4 -1 -23 -23 -42
-48 -19 -25 -43 -54 -52 -64 -10 -11 -18 -23 -18 -27 0 -5 -11 -19 -25 -33
-14 -14 -25 -29 -25 -35 0 -5 -3 -11 -8 -13 -4 -1 -23 -23 -42 -48 -19 -25
-37 -47 -40 -50 -3 -3 -19 -21 -35 -41 -60 -71 -121 -142 -147 -171 -15 -16
-42 -47 -60 -70 -41 -50 -506 -518 -568 -571 -102 -87 -144 -124 -187 -164
-25 -24 -48 -43 -52 -43 -4 0 -28 -20 -52 -43 -24 -24 -49 -46 -55 -48 -13 -5
-73 -52 -118 -91 -17 -16 -33 -28 -37 -28 -4 0 -21 -13 -39 -30 -18 -16 -35
-30 -39 -30 -4 0 -16 -8 -27 -18 -18 -16 -122 -91 -239 -172 -27 -19 -51 -38
-53 -42 -2 -4 -8 -8 -13 -8 -5 0 -30 -15 -56 -32 -71 -49 -86 -58 -105 -64
-10 -4 -18 -10 -18 -14 0 -4 -8 -10 -17 -14 -18 -5 -53 -26 -63 -36 -6 -6 -24
-17 -110 -67 -36 -21 -69 -40 -75 -42 -5 -2 -12 -7 -15 -10 -3 -3 -23 -15 -45
-26 -22 -11 -42 -22 -45 -25 -5 -5 -115 -64 -157 -84 -13 -6 -23 -14 -23 -18
0 -5 -6 -8 -12 -8 -16 0 -122 -53 -126 -62 -2 -5 -9 -8 -15 -8 -6 0 -47 -17
-91 -39 -132 -62 -196 -91 -206 -91 -6 0 -10 -4 -10 -10 0 -5 -10 -10 -23 -10
-13 0 -32 -7 -43 -15 -10 -8 -27 -15 -36 -15 -10 0 -18 -4 -18 -10 0 -5 -11
-10 -25 -10 -14 0 -25 -4 -25 -10 0 -5 -16 -12 -35 -16 -19 -3 -35 -10 -35
-15 0 -5 -6 -9 -14 -9 -7 0 -27 -7 -42 -15 -16 -8 -37 -15 -46 -15 -9 0 -20
-4 -23 -10 -3 -5 -17 -10 -31 -10 -13 0 -24 -3 -24 -7 0 -5 -28 -17 -63 -27
-34 -10 -66 -22 -72 -25 -5 -4 -37 -15 -70 -25 -33 -10 -69 -22 -80 -26 -57
-21 -122 -40 -137 -40 -10 0 -18 -4 -18 -9 0 -5 -12 -11 -27 -14 -16 -3 -53
-13 -83 -22 -30 -9 -66 -19 -80 -22 -14 -2 -34 -8 -45 -13 -18 -8 -70 -21
-145 -36 -14 -3 -34 -9 -45 -14 -28 -12 -156 -40 -181 -40 -11 0 -24 -3 -28
-7 -9 -9 -115 -30 -194 -39 -29 -4 -55 -10 -58 -15 -3 -5 -22 -9 -42 -9 -20
-1 -66 -7 -102 -15 -36 -8 -81 -14 -101 -15 -19 0 -39 -4 -45 -9 -5 -5 -38
-11 -74 -14 -36 -3 -128 -13 -205 -22 -166 -20 -328 -31 -643 -43 -371 -13
-1026 18 -1225 58 -26 6 -72 10 -102 10 -30 0 -57 5 -60 10 -3 6 -23 10 -43
10 -20 1 -66 7 -102 15 -36 8 -82 14 -102 15 -20 0 -40 5 -43 10 -3 6 -18 10
-32 10 -35 0 -194 30 -215 41 -10 5 -26 9 -35 9 -21 0 -149 29 -178 41 -11 4
-31 10 -45 12 -14 3 -52 13 -85 22 -33 9 -71 18 -85 21 -14 3 -34 9 -45 14
-22 9 -95 29 -137 37 -16 3 -28 9 -28 14 0 5 -8 9 -17 9 -16 0 -84 20 -138 40
-68 26 -113 40 -128 40 -9 0 -17 5 -17 10 0 6 -9 10 -20 10 -17 0 -66 18 -112
41 -10 5 -24 9 -32 9 -7 0 -27 7 -42 15 -16 8 -37 15 -46 15 -10 0 -18 5 -18
10 0 6 -7 10 -15 10 -8 0 -23 4 -33 10 -9 5 -33 15 -52 23 -19 8 -61 26 -93
41 -32 14 -61 26 -66 26 -4 0 -21 6 -37 14 -46 23 -176 82 -211 97 -18 8 -33
17 -33 21 0 5 -4 8 -10 8 -17 0 -90 34 -90 42 0 5 -7 8 -15 8 -8 0 -48 18 -87
39 -40 22 -98 52 -128 68 -30 15 -57 30 -60 33 -8 8 -43 28 -80 47 -19 9 -70
39 -112 65 -43 26 -82 48 -88 48 -5 0 -10 4 -10 9 0 5 -8 11 -17 15 -19 6 -54
27 -63 37 -3 3 -21 14 -40 25 -19 10 -37 22 -40 25 -3 3 -20 14 -37 24 -18 11
-33 23 -33 27 0 4 -4 8 -10 8 -7 0 -96 57 -135 87 -55 43 -85 63 -94 63 -6 0
-11 4 -11 9 0 5 -8 12 -18 15 -10 4 -27 14 -38 24 -10 10 -37 31 -59 47 -22
17 -42 32 -45 36 -3 3 -32 25 -65 50 -33 24 -62 46 -65 49 -3 3 -26 22 -52 43
-26 21 -53 44 -60 50 -7 7 -22 19 -34 27 -12 8 -41 33 -66 55 -25 22 -76 67
-114 100 -38 33 -93 83 -123 110 -78 72 -421 416 -455 456 -16 19 -52 59 -80
90 -100 111 -226 259 -286 338 -19 25 -39 51 -45 57 -5 7 -19 24 -30 40 -11
15 -38 50 -60 78 -23 28 -59 76 -80 106 -22 30 -45 61 -52 68 -7 7 -13 20 -13
28 0 8 -4 14 -8 14 -5 0 -17 16 -28 35 -10 19 -22 35 -26 35 -5 0 -8 7 -8 15
0 8 -4 15 -9 15 -5 0 -12 8 -15 18 -4 10 -15 28 -25 39 -11 11 -54 78 -96 149
-43 71 -81 131 -86 132 -5 2 -9 10 -9 17 0 8 -6 20 -12 27 -7 8 -18 23 -24 33
-39 73 -50 91 -54 95 -3 3 -17 28 -31 55 -43 85 -84 160 -89 165 -10 9 -90
178 -90 189 0 6 -4 11 -8 11 -4 0 -16 23 -27 50 -11 28 -23 50 -27 50 -4 0 -8
4 -8 9 0 5 -16 43 -35 84 -19 42 -37 87 -41 101 -3 14 -10 26 -15 26 -5 0 -9
6 -9 14 0 7 -7 27 -15 42 -8 16 -15 37 -15 47 0 9 -4 17 -10 17 -5 0 -10 7
-10 15 0 8 -4 23 -10 33 -5 9 -16 35 -25 57 -9 22 -21 48 -26 57 -5 10 -9 23
-9 29 0 11 -22 67 -41 101 -5 10 -9 24 -9 33 0 8 -7 31 -16 52 -28 64 -32 75
-60 163 -14 47 -30 94 -34 105 -5 11 -23 67 -40 125 -17 58 -36 115 -41 128
-5 13 -9 32 -9 43 0 10 -4 27 -9 37 -12 23 -75 283 -111 457 -24 114 -42 206
-50 255 -4 30 -16 100 -25 155 -60 366 -89 755 -89 1210 0 357 8 540 40 830
26 240 31 286 43 360 23 149 70 399 91 485 5 19 16 73 25 120 10 47 21 94 25
105 5 11 16 54 26 95 9 41 20 83 25 92 5 10 9 27 9 37 0 11 4 30 9 43 5 13 17
50 26 83 9 33 21 69 25 80 4 11 27 81 51 155 23 74 45 140 49 145 3 6 14 35
24 65 10 30 21 64 26 75 4 11 14 36 20 55 14 38 31 80 55 134 8 19 15 37 15
40 0 3 11 30 25 60 14 30 25 57 25 60 0 7 47 114 60 138 6 10 10 25 10 33 0 8
4 15 8 15 4 0 16 23 27 50 11 28 23 50 27 50 4 0 8 5 8 11 0 11 150 320 160
329 3 3 11 16 17 30 7 14 31 59 54 100 23 41 49 89 57 105 9 17 18 32 21 35 4
3 15 22 26 43 11 20 23 37 27 37 5 0 8 5 8 10 0 13 140 237 201 322 27 37 49
72 49 78 0 5 4 10 8 10 5 0 17 16 28 35 10 19 22 35 26 35 5 0 8 7 8 15 0 8 4
15 9 15 5 0 12 8 15 18 4 10 14 27 24 38 10 10 38 46 62 79 24 33 55 74 69 91
31 37 44 54 91 114 19 25 37 47 40 50 3 3 30 34 60 70 132 157 144 171 205
238 65 72 499 508 556 557 18 17 66 57 104 89 39 32 77 65 85 74 8 10 36 34
62 55 26 21 53 44 60 51 7 7 27 21 43 32 17 10 39 27 50 37 11 10 45 37 75 60
30 23 64 50 74 59 11 10 23 18 27 18 4 0 14 6 21 14 50 49 565 393 641 427 15
7 27 16 27 21 0 4 5 8 10 8 6 0 27 10 48 23 20 13 71 42 112 64 41 22 93 51
115 63 66 38 193 100 204 100 6 0 11 4 11 8 0 4 23 16 50 27 28 11 50 23 50
27 0 4 5 8 11 8 7 0 44 15 83 34 64 30 110 51 171 76 11 5 46 20 78 34 32 14
60 26 62 26 2 0 28 11 57 24 29 13 76 31 103 41 28 9 59 20 70 25 11 4 43 15
70 25 28 9 59 21 70 25 11 5 56 21 100 35 44 15 89 30 100 34 11 5 47 16 80
26 33 9 69 21 80 26 20 8 111 33 260 70 44 11 89 24 100 29 11 4 56 15 100 25
44 9 96 20 115 25 19 5 51 12 70 16 19 3 67 13 105 21 264 54 610 102 895 124
274 22 803 28 1060 13z"/>
<path d="M13395 21044 c-11 -2 -121 -11 -245 -20 -124 -8 -261 -19 -305 -24
-44 -5 -125 -14 -179 -19 -54 -6 -115 -15 -135 -21 -20 -5 -51 -10 -69 -10
-18 0 -40 -4 -50 -9 -17 -9 -134 -31 -209 -39 -24 -2 -43 -8 -43 -13 0 -5 -15
-9 -32 -9 -18 0 -55 -7 -82 -15 -27 -8 -62 -15 -78 -15 -15 0 -28 -4 -28 -9 0
-5 -17 -11 -37 -14 -40 -6 -138 -30 -163 -39 -8 -4 -26 -9 -40 -12 -66 -14
-129 -32 -136 -39 -4 -4 -16 -7 -26 -7 -10 0 -26 -4 -36 -9 -28 -13 -118 -41
-136 -41 -9 0 -16 -3 -16 -8 0 -7 -58 -25 -122 -39 -16 -3 -28 -8 -28 -12 0
-4 -29 -16 -65 -26 -36 -11 -65 -23 -65 -27 0 -5 -11 -8 -24 -8 -14 0 -27 -4
-31 -9 -3 -5 -20 -13 -37 -17 -18 -3 -39 -10 -48 -14 -8 -4 -26 -12 -40 -18
-14 -6 -51 -22 -83 -36 -32 -14 -60 -26 -62 -26 -6 0 -110 -46 -148 -66 -16
-8 -35 -14 -43 -14 -8 0 -14 -4 -14 -8 0 -4 -22 -16 -50 -27 -27 -11 -50 -22
-50 -25 0 -3 -22 -14 -50 -25 -27 -11 -50 -23 -50 -27 0 -4 -6 -8 -14 -8 -13
0 -75 -29 -86 -40 -3 -3 -27 -17 -55 -31 -27 -15 -75 -39 -105 -55 -30 -16
-57 -31 -60 -34 -4 -4 -22 -15 -95 -54 -10 -6 -25 -17 -33 -23 -7 -7 -20 -13
-28 -13 -8 0 -14 -4 -14 -10 0 -5 -7 -10 -15 -10 -8 0 -15 -4 -15 -10 0 -5
-11 -12 -25 -16 -14 -3 -25 -10 -25 -15 0 -5 -5 -9 -10 -9 -9 0 -87 -47 -100
-60 -10 -10 -45 -31 -62 -36 -10 -4 -18 -10 -18 -14 0 -4 -16 -15 -35 -26 -19
-10 -35 -22 -35 -26 0 -5 -7 -8 -15 -8 -8 0 -15 -4 -15 -9 0 -5 -8 -12 -18
-15 -10 -4 -27 -14 -38 -24 -11 -9 -51 -38 -89 -64 -39 -26 -84 -61 -102 -78
-18 -16 -36 -30 -40 -30 -5 0 -19 -10 -33 -22 -14 -13 -52 -43 -85 -68 -33
-25 -69 -54 -81 -66 -12 -11 -44 -38 -70 -60 -27 -21 -63 -53 -81 -71 -17 -18
-35 -33 -38 -33 -4 0 -12 -6 -19 -12 -8 -7 -55 -51 -107 -98 -166 -152 -477
-468 -559 -570 -19 -24 -47 -55 -61 -71 -14 -15 -36 -41 -50 -59 -13 -17 -37
-46 -54 -64 -16 -18 -39 -45 -50 -60 -11 -16 -26 -34 -32 -41 -7 -8 -13 -18
-13 -23 0 -6 -3 -12 -7 -14 -5 -1 -28 -28 -53 -58 -24 -30 -48 -56 -52 -58 -5
-2 -8 -8 -8 -14 0 -5 -6 -16 -12 -23 -30 -33 -38 -45 -38 -55 0 -5 -3 -10 -8
-10 -4 0 -16 -16 -26 -35 -11 -19 -23 -35 -28 -35 -4 0 -8 -5 -8 -10 0 -6 -18
-35 -40 -65 -22 -30 -40 -59 -40 -65 0 -5 -4 -10 -8 -10 -5 0 -17 -16 -28 -35
-10 -19 -22 -35 -26 -35 -5 0 -8 -7 -8 -15 0 -8 -4 -15 -10 -15 -5 0 -12 -11
-16 -25 -3 -14 -10 -25 -15 -25 -5 0 -9 -4 -9 -9 0 -6 -26 -52 -58 -103 -64
-102 -102 -167 -141 -243 -14 -27 -28 -52 -31 -55 -3 -3 -17 -27 -32 -55 -65
-124 -88 -170 -88 -182 0 -7 -4 -13 -10 -13 -5 0 -10 -5 -10 -11 0 -6 -22 -57
-50 -113 -27 -56 -50 -108 -50 -114 0 -7 -4 -12 -10 -12 -5 0 -10 -7 -10 -15
0 -8 -4 -23 -10 -33 -5 -9 -15 -33 -23 -52 -8 -19 -26 -61 -41 -93 -14 -32
-26 -61 -26 -65 0 -5 -11 -32 -25 -60 -14 -29 -25 -61 -25 -72 0 -11 -4 -20
-10 -20 -5 0 -10 -9 -10 -20 0 -10 -7 -36 -16 -57 -9 -21 -20 -47 -24 -58 -4
-11 -15 -37 -24 -58 -9 -21 -16 -44 -16 -52 0 -9 -4 -23 -9 -33 -5 -9 -21 -57
-36 -107 -15 -49 -31 -98 -36 -107 -5 -9 -12 -35 -15 -58 -4 -22 -11 -43 -15
-46 -5 -3 -9 -16 -9 -30 0 -13 -4 -32 -10 -42 -8 -15 -19 -56 -36 -142 -3 -14
-9 -34 -14 -45 -13 -32 -40 -157 -40 -187 0 -15 -5 -30 -10 -33 -6 -3 -10 -19
-10 -34 0 -15 -4 -41 -10 -57 -9 -28 -21 -88 -40 -219 -5 -33 -11 -69 -14 -80
-11 -38 -40 -276 -56 -455 -5 -69 -15 -161 -20 -206 -13 -104 -13 -924 0
-1028 5 -45 15 -137 20 -206 19 -221 43 -406 60 -470 6 -19 10 -54 10 -77 0
-23 5 -45 10 -48 6 -3 10 -23 10 -43 0 -21 7 -64 15 -95 8 -32 15 -69 15 -82
0 -13 4 -27 10 -30 6 -3 10 -16 10 -28 0 -26 29 -163 40 -192 5 -11 11 -31 14
-45 22 -102 32 -140 39 -146 4 -4 7 -20 7 -35 0 -15 4 -30 9 -33 5 -3 12 -26
15 -51 4 -24 11 -47 17 -50 5 -4 9 -15 9 -26 0 -10 4 -27 9 -37 6 -9 17 -44
26 -77 10 -33 21 -69 25 -80 4 -11 15 -42 25 -70 19 -58 26 -76 49 -128 9 -21
16 -47 16 -57 0 -11 5 -20 10 -20 6 0 10 -9 10 -20 0 -11 4 -28 10 -38 5 -9
16 -35 26 -57 37 -92 59 -142 84 -200 10 -22 26 -58 35 -80 10 -22 46 -100 81
-173 35 -72 64 -137 64 -142 0 -6 5 -10 10 -10 6 0 10 -7 10 -15 0 -9 10 -32
23 -53 12 -20 31 -55 42 -77 11 -22 22 -42 25 -45 3 -3 18 -31 35 -62 16 -32
33 -58 37 -58 4 0 8 -6 8 -13 0 -16 80 -151 92 -155 4 -2 8 -8 8 -13 0 -5 22
-45 50 -89 28 -44 50 -84 50 -90 0 -5 3 -10 8 -10 4 0 16 -16 26 -35 11 -19
23 -35 28 -35 4 0 8 -5 8 -11 0 -6 6 -17 13 -24 28 -32 56 -74 63 -97 4 -10 9
-18 13 -18 4 0 15 -15 26 -32 10 -18 21 -35 24 -38 3 -3 26 -32 50 -65 25 -33
47 -62 50 -65 4 -3 19 -23 36 -45 16 -22 31 -42 35 -45 3 -3 25 -32 50 -65 24
-33 53 -69 65 -81 11 -11 36 -40 55 -64 19 -24 49 -58 65 -76 17 -17 39 -44
51 -58 104 -131 455 -483 652 -654 10 -9 46 -41 79 -69 33 -29 73 -63 89 -75
16 -12 38 -32 49 -43 11 -12 45 -39 75 -60 30 -22 57 -42 60 -45 3 -3 25 -21
50 -40 25 -19 47 -37 50 -40 14 -16 151 -110 160 -110 5 0 10 -4 10 -8 0 -5
16 -17 35 -28 19 -10 35 -22 35 -26 0 -5 7 -8 15 -8 8 0 15 -4 15 -9 0 -5 8
-12 18 -15 10 -4 27 -14 38 -24 28 -25 208 -139 233 -147 12 -3 21 -11 21 -16
0 -5 7 -9 15 -9 8 0 15 -4 15 -10 0 -5 11 -12 25 -16 14 -3 25 -10 25 -15 0
-5 7 -9 15 -9 8 0 15 -4 15 -8 0 -5 19 -16 43 -27 23 -10 44 -21 47 -24 5 -5
65 -39 145 -80 16 -9 32 -18 35 -21 9 -10 218 -110 229 -110 6 0 11 -3 11 -7
0 -5 21 -17 48 -27 26 -11 49 -22 52 -26 3 -4 91 -42 195 -85 105 -43 194 -82
199 -87 6 -4 16 -8 24 -8 8 0 28 -6 45 -14 18 -8 55 -22 82 -31 54 -19 77 -27
115 -43 14 -5 48 -17 75 -27 28 -9 59 -20 70 -24 11 -5 47 -16 80 -26 33 -9
69 -21 80 -25 19 -7 86 -27 180 -52 22 -5 50 -14 61 -18 12 -5 42 -12 68 -15
25 -4 49 -11 52 -16 3 -5 18 -9 33 -9 15 0 31 -4 37 -9 5 -5 36 -14 69 -20 33
-5 80 -15 105 -20 41 -9 194 -38 315 -61 119 -22 177 -31 266 -41 52 -6 123
-14 159 -19 79 -11 260 -25 515 -41 263 -16 860 1 1080 31 108 15 192 26 300
41 102 13 176 25 220 34 17 3 73 13 125 21 52 9 104 20 115 25 11 4 34 10 50
13 53 9 169 34 205 44 83 25 157 44 188 49 18 3 35 9 38 14 3 5 16 9 29 9 22
0 91 19 140 39 11 5 47 16 80 26 33 9 69 21 80 25 11 5 45 16 75 26 30 10 59
22 64 26 6 4 20 8 32 8 13 0 25 4 29 9 3 5 20 13 37 17 31 6 40 10 88 34 11 6
25 10 31 10 6 0 26 7 45 15 30 13 60 26 129 55 11 4 40 17 65 28 25 11 81 34
125 53 44 18 82 36 83 41 2 4 8 8 14 8 10 0 320 150 328 159 3 3 30 19 60 35
131 68 201 107 292 165 54 33 102 61 107 61 5 0 11 4 13 8 2 4 35 27 73 51 39
24 72 48 73 53 2 4 8 8 12 8 7 0 172 111 205 138 6 5 24 17 40 28 17 10 37 24
45 31 56 46 172 136 216 168 37 27 153 125 179 150 11 11 45 41 75 65 150 123
575 548 692 693 18 22 42 50 53 61 11 12 36 41 56 66 20 25 47 56 58 70 45 52
57 66 86 105 72 96 128 168 152 195 13 14 23 30 23 37 0 7 4 13 8 13 5 0 17
16 28 35 10 19 22 35 26 35 5 0 8 7 8 15 0 8 4 15 9 15 5 0 12 8 15 18 4 10
14 27 24 38 27 30 102 144 102 155 0 5 4 9 9 9 5 0 11 8 15 17 3 10 10 25 16
33 57 85 179 291 213 360 12 25 24 47 27 50 15 15 197 376 242 480 9 19 27 61
42 93 14 32 26 64 26 72 0 8 5 15 10 15 6 0 10 7 10 15 0 8 4 23 10 33 5 9 16
34 25 55 8 20 22 52 30 71 8 19 15 39 15 45 0 6 4 19 9 29 13 25 27 61 46 117
9 28 23 64 31 82 8 17 14 36 14 42 0 6 4 19 9 29 14 25 61 185 61 205 0 9 4
17 9 17 5 0 11 12 14 28 9 42 33 135 39 152 8 22 27 88 37 135 6 22 15 58 21
80 6 22 18 74 27 115 8 41 19 93 23 115 20 92 42 204 50 255 5 30 16 98 25
150 9 52 21 133 26 180 5 47 13 123 19 170 44 398 45 1157 0 1540 -5 41 -13
116 -19 165 -9 79 -18 137 -51 340 -11 67 -37 200 -50 255 -5 25 -16 77 -24
115 -8 39 -20 88 -26 110 -6 22 -17 65 -25 95 -8 30 -18 71 -24 90 -9 32 -29
106 -46 170 -4 14 -10 34 -15 45 -4 11 -16 47 -25 80 -10 33 -21 68 -26 77 -5
10 -9 23 -9 30 0 11 -35 112 -60 173 -4 11 -27 72 -50 135 -24 63 -46 120 -50
125 -4 6 -11 21 -15 35 -8 25 -38 96 -76 176 -10 22 -19 44 -19 48 0 5 -34 77
-75 161 -41 84 -75 157 -75 163 0 6 -3 12 -7 14 -5 2 -24 34 -43 71 -44 86
-64 122 -123 226 -26 46 -47 87 -47 91 0 5 -4 10 -8 12 -5 2 -26 32 -47 68
-65 109 -99 165 -105 170 -10 9 -31 45 -36 63 -4 9 -10 17 -14 17 -4 0 -15 16
-26 35 -10 19 -21 35 -24 35 -3 0 -19 23 -35 50 -16 28 -32 50 -35 50 -3 0
-14 16 -24 35 -11 19 -23 35 -28 35 -4 0 -8 6 -8 13 0 7 -11 24 -25 39 -14 15
-25 31 -25 37 0 5 -4 11 -8 13 -4 2 -23 23 -42 48 -19 24 -43 53 -52 64 -10
11 -18 23 -18 27 0 5 -11 19 -25 33 -14 14 -25 28 -25 31 0 4 -6 12 -13 19 -7
8 -29 33 -48 56 -18 24 -45 55 -59 69 -14 15 -45 51 -70 81 -137 166 -539 565
-725 722 -22 18 -53 45 -70 60 -16 14 -41 36 -55 47 -31 26 -87 73 -119 100
-13 12 -27 21 -31 21 -3 0 -15 8 -26 18 -10 9 -46 39 -79 65 -33 26 -67 54
-76 61 -8 7 -30 21 -47 32 -18 10 -32 22 -32 26 0 4 -5 8 -10 8 -6 0 -35 18
-65 40 -30 22 -59 40 -65 40 -5 0 -10 4 -10 8 0 4 -15 16 -32 27 -18 10 -35
22 -38 25 -3 4 -50 35 -105 69 -55 34 -107 66 -115 71 -8 6 -23 13 -32 16 -10
4 -18 10 -18 14 0 4 -8 10 -17 14 -18 5 -53 26 -63 36 -3 3 -23 14 -45 25 -22
11 -42 22 -45 25 -3 3 -23 14 -45 25 -22 11 -42 22 -45 25 -3 3 -23 14 -45 25
-22 11 -42 22 -45 25 -10 10 -115 60 -127 60 -6 0 -13 3 -15 8 -4 10 -67 42
-84 42 -8 0 -14 4 -14 8 0 4 -22 16 -50 27 -27 11 -50 23 -50 27 0 4 -6 8 -14
8 -8 0 -27 6 -43 14 -15 8 -50 25 -78 36 -27 12 -65 28 -82 36 -18 8 -50 21
-70 29 -21 9 -46 20 -55 25 -10 6 -25 10 -33 10 -8 0 -15 3 -15 8 0 4 -28 16
-63 26 -34 11 -69 23 -77 27 -55 25 -93 39 -110 39 -11 0 -20 5 -20 10 0 6 -8
10 -17 10 -15 0 -60 14 -128 40 -54 20 -122 40 -137 40 -10 0 -18 4 -18 9 0 5
-12 11 -27 14 -61 12 -132 32 -139 40 -4 4 -22 7 -39 7 -17 0 -35 3 -39 7 -6
7 -44 17 -146 39 -14 3 -34 9 -45 14 -32 12 -167 40 -197 40 -16 0 -28 5 -28
10 0 6 -10 10 -21 10 -26 0 -183 29 -225 41 -17 5 -44 9 -61 9 -16 0 -43 4
-59 10 -16 5 -76 14 -134 20 -58 6 -141 15 -185 20 -234 26 -513 41 -790 45
-170 2 -319 1 -330 -1z m765 -174 c52 -5 156 -14 230 -21 152 -13 258 -25 310
-34 50 -8 209 -33 250 -39 19 -2 49 -7 65 -11 17 -3 66 -13 110 -21 44 -9 96
-20 115 -24 19 -5 69 -17 110 -26 41 -9 84 -20 95 -24 11 -5 31 -11 45 -13 14
-3 52 -13 85 -22 33 -9 71 -18 85 -21 14 -3 34 -9 45 -13 11 -5 47 -16 80 -26
33 -9 69 -21 80 -26 11 -4 47 -15 80 -25 68 -19 84 -24 138 -48 21 -9 44 -16
52 -16 9 0 23 -4 33 -9 9 -6 51 -22 92 -36 41 -15 84 -30 95 -35 11 -5 36 -15
55 -23 19 -8 57 -24 84 -36 27 -12 71 -31 99 -42 52 -21 301 -139 392 -186
114 -59 150 -78 155 -83 5 -5 61 -35 165 -89 28 -14 56 -32 63 -38 7 -7 19
-13 27 -13 7 0 15 -4 17 -9 2 -5 41 -32 88 -60 47 -28 90 -54 96 -58 26 -20
50 -34 67 -39 9 -4 17 -10 17 -14 0 -4 16 -15 35 -26 19 -10 35 -22 35 -26 0
-5 7 -8 15 -8 8 0 15 -4 15 -8 0 -5 10 -14 23 -19 12 -6 31 -18 42 -27 11 -9
50 -37 86 -64 77 -54 182 -133 189 -141 3 -3 32 -26 65 -51 33 -25 67 -52 75
-60 8 -8 40 -36 70 -60 30 -25 60 -49 66 -55 6 -5 37 -32 69 -60 173 -149 595
-573 652 -655 10 -14 33 -41 53 -62 19 -20 42 -45 50 -57 9 -11 29 -35 45 -53
17 -18 50 -60 75 -93 25 -33 47 -62 51 -65 3 -3 18 -23 34 -45 17 -22 32 -42
36 -45 3 -3 25 -32 50 -65 24 -33 47 -61 52 -63 4 -2 7 -8 7 -12 0 -7 80 -126
148 -219 9 -13 26 -40 37 -60 11 -20 22 -38 25 -41 10 -10 31 -45 36 -62 4
-10 10 -18 14 -18 4 0 10 -8 14 -17 5 -18 26 -53 36 -63 8 -8 28 -43 47 -80 9
-19 20 -37 24 -40 3 -3 9 -15 13 -27 4 -13 12 -23 17 -23 5 0 9 -9 9 -20 0
-11 3 -20 8 -20 4 0 16 -20 27 -45 11 -25 22 -45 25 -45 3 0 14 -20 25 -45 11
-25 22 -45 25 -45 3 0 14 -22 25 -50 11 -27 23 -50 27 -50 4 0 8 -6 8 -13 0
-7 23 -57 50 -111 28 -54 50 -105 50 -112 0 -8 5 -14 10 -14 6 0 10 -7 10 -16
0 -9 6 -28 14 -42 7 -15 19 -40 26 -57 19 -46 36 -85 64 -148 14 -32 26 -63
26 -70 0 -7 4 -17 8 -22 4 -6 16 -35 26 -65 11 -30 23 -59 27 -65 5 -5 9 -17
9 -26 0 -9 7 -30 15 -45 8 -16 15 -37 15 -46 0 -9 5 -20 10 -23 6 -3 10 -17
10 -31 0 -13 4 -24 9 -24 5 0 11 -18 15 -40 3 -23 10 -49 15 -58 14 -25 61
-186 61 -205 0 -9 5 -17 10 -17 6 0 10 -10 10 -22 0 -23 26 -129 40 -163 9
-20 12 -35 34 -140 7 -33 15 -67 18 -75 4 -8 9 -28 12 -45 2 -16 12 -66 21
-110 10 -44 19 -98 22 -120 2 -22 7 -47 10 -55 8 -18 44 -258 59 -385 3 -22 9
-78 15 -125 44 -347 44 -1174 0 -1520 -6 -47 -13 -107 -16 -135 -13 -121 -49
-354 -58 -375 -3 -8 -8 -35 -11 -60 -3 -25 -12 -79 -21 -120 -9 -41 -19 -88
-21 -105 -3 -16 -8 -37 -12 -45 -3 -8 -11 -42 -18 -75 -22 -106 -25 -120 -34
-140 -13 -30 -31 -105 -37 -147 -3 -21 -9 -38 -14 -38 -5 0 -9 -8 -9 -17 0
-19 -47 -180 -61 -205 -5 -9 -12 -35 -15 -58 -4 -22 -10 -40 -15 -40 -5 0 -9
-11 -9 -24 0 -14 -4 -28 -10 -31 -5 -3 -10 -14 -10 -23 0 -9 -7 -30 -15 -46
-8 -15 -15 -37 -15 -47 0 -10 -4 -20 -9 -24 -5 -3 -13 -20 -17 -37 -6 -31 -10
-40 -34 -88 -5 -11 -10 -24 -10 -30 0 -5 -12 -35 -26 -67 -27 -60 -43 -97 -64
-148 -31 -75 -42 -97 -99 -215 -34 -69 -61 -131 -61 -138 0 -7 -3 -12 -7 -12
-5 0 -17 -21 -27 -48 -11 -26 -22 -49 -25 -52 -3 -3 -18 -27 -32 -55 -50 -96
-64 -120 -71 -123 -5 -2 -8 -12 -8 -23 0 -10 -4 -19 -10 -19 -5 0 -10 -5 -10
-11 0 -10 -78 -149 -89 -159 -10 -8 -31 -44 -37 -63 -4 -9 -10 -17 -14 -17 -4
0 -10 -8 -14 -17 -5 -18 -26 -53 -36 -63 -3 -3 -14 -22 -25 -43 -11 -21 -27
-46 -35 -55 -25 -29 -100 -143 -100 -152 0 -5 -4 -10 -8 -12 -4 -1 -36 -42
-70 -90 -35 -48 -69 -93 -75 -100 -7 -7 -30 -38 -51 -68 -22 -30 -44 -59 -51
-65 -6 -5 -24 -28 -40 -50 -17 -22 -41 -52 -55 -66 -14 -14 -34 -38 -45 -53
-11 -15 -37 -45 -57 -66 -21 -21 -38 -41 -38 -45 0 -3 -6 -12 -12 -19 -7 -7
-56 -59 -108 -116 -113 -123 -295 -306 -371 -374 -30 -26 -82 -75 -115 -107
-34 -33 -65 -59 -69 -59 -4 0 -23 -16 -44 -35 -20 -19 -47 -45 -61 -56 -14
-12 -45 -38 -70 -59 -25 -21 -65 -55 -90 -75 -25 -20 -53 -42 -62 -50 -9 -7
-25 -18 -36 -24 -11 -6 -26 -17 -34 -24 -7 -7 -33 -28 -58 -47 -25 -19 -46
-38 -48 -42 -2 -5 -10 -8 -18 -8 -8 0 -14 -3 -14 -8 0 -4 -16 -16 -35 -26 -19
-11 -35 -23 -35 -28 0 -4 -5 -8 -10 -8 -12 0 -153 -100 -158 -112 -2 -5 -10
-8 -17 -8 -8 0 -20 -6 -27 -13 -7 -7 -29 -21 -48 -30 -39 -19 -72 -39 -80 -47
-8 -8 -131 -86 -170 -108 -19 -10 -62 -34 -95 -52 -33 -18 -69 -38 -80 -44
-11 -6 -22 -13 -25 -16 -11 -11 -316 -160 -327 -160 -6 0 -13 -3 -15 -7 -4
-11 -67 -43 -84 -43 -8 0 -14 -4 -14 -9 0 -5 -12 -12 -26 -15 -14 -4 -59 -22
-101 -41 -41 -19 -81 -35 -89 -35 -8 0 -14 -4 -14 -10 0 -5 -7 -10 -15 -10 -8
0 -38 -11 -67 -24 -29 -13 -87 -36 -128 -51 -41 -15 -89 -33 -107 -41 -17 -8
-38 -14 -46 -14 -9 0 -19 -4 -22 -10 -3 -5 -17 -10 -31 -10 -13 0 -24 -4 -24
-9 0 -5 -20 -12 -45 -15 -24 -4 -47 -11 -50 -17 -4 -5 -15 -9 -26 -9 -10 0
-27 -4 -37 -9 -9 -5 -44 -16 -77 -26 -33 -9 -69 -21 -80 -25 -11 -5 -31 -11
-45 -13 -35 -6 -121 -28 -145 -37 -50 -18 -93 -30 -135 -36 -25 -4 -49 -10
-55 -14 -5 -4 -28 -10 -50 -13 -22 -3 -74 -13 -115 -22 -41 -9 -93 -19 -115
-21 -22 -3 -49 -9 -60 -13 -11 -5 -58 -14 -105 -21 -47 -7 -110 -16 -140 -22
-30 -5 -73 -11 -95 -14 -22 -2 -78 -10 -125 -16 -428 -55 -1274 -55 -1700 0
-47 6 -103 14 -125 16 -22 3 -65 10 -95 15 -30 5 -98 17 -150 26 -158 27 -192
33 -270 50 -126 27 -153 33 -220 50 -36 8 -76 18 -90 21 -14 3 -34 9 -45 14
-11 5 -31 11 -45 13 -35 6 -121 28 -145 37 -62 22 -122 40 -137 40 -10 0 -18
5 -18 10 0 6 -7 10 -16 10 -19 0 -112 28 -136 41 -10 5 -27 9 -37 9 -11 0 -22
4 -26 9 -3 5 -20 13 -37 17 -18 3 -40 10 -50 15 -40 20 -56 26 -115 44 -35 11
-63 23 -63 27 0 5 -6 8 -14 8 -8 0 -48 16 -89 35 -42 19 -87 37 -101 41 -14 3
-26 10 -26 15 0 5 -6 9 -14 9 -7 0 -27 7 -42 15 -16 8 -37 15 -46 15 -10 0
-18 3 -18 8 0 8 -73 42 -90 42 -6 0 -10 5 -10 10 0 6 -6 10 -14 10 -17 0 -80
32 -84 43 -2 4 -12 7 -23 7 -10 0 -19 3 -19 8 0 4 -21 16 -48 26 -26 11 -49
22 -52 25 -3 3 -32 19 -65 36 -33 16 -62 33 -65 36 -3 4 -25 16 -50 28 -25 11
-67 34 -95 51 -27 16 -63 37 -80 46 -16 9 -32 20 -35 23 -3 3 -22 15 -42 26
-21 11 -38 22 -38 26 0 4 -8 9 -17 13 -18 5 -53 26 -63 36 -3 3 -21 14 -41 25
-20 11 -47 28 -60 37 -13 10 -82 59 -154 109 -71 50 -131 95 -133 100 -2 5 -9
9 -15 9 -7 0 -23 10 -37 23 -14 12 -52 42 -85 66 -33 25 -62 47 -65 50 -3 4
-21 18 -41 33 -20 15 -50 40 -66 55 -16 15 -40 37 -54 48 -49 38 -131 110
-193 169 -33 32 -94 88 -135 125 -75 67 -214 208 -332 336 -35 38 -75 81 -89
96 -14 14 -34 38 -45 51 -62 78 -94 115 -132 155 -24 25 -43 48 -43 52 0 4 -8
16 -18 27 -9 10 -33 39 -52 64 -19 25 -37 47 -40 50 -3 3 -23 30 -45 60 -22
30 -42 57 -46 60 -3 3 -25 32 -47 65 -23 33 -69 98 -102 145 -33 47 -78 117
-101 155 -24 39 -46 71 -51 73 -4 2 -8 10 -8 18 0 8 -4 14 -9 14 -5 0 -12 11
-15 25 -4 14 -11 25 -16 25 -6 0 -10 7 -10 15 0 8 -3 15 -8 15 -4 0 -23 30
-42 66 -46 87 -67 124 -120 219 -43 75 -172 334 -218 435 -58 128 -72 161 -72
168 0 4 -11 28 -24 55 -14 26 -27 61 -31 77 -4 17 -11 30 -16 30 -5 0 -9 11
-9 25 0 14 -3 25 -7 25 -5 0 -17 30 -28 66 -11 36 -23 68 -27 70 -5 3 -8 13
-8 22 0 9 -7 30 -15 46 -8 15 -15 37 -15 47 0 11 -4 19 -10 19 -5 0 -10 7 -10
16 0 15 -21 86 -41 139 -4 11 -15 47 -24 80 -9 33 -20 69 -24 80 -17 42 -30
91 -37 133 -4 23 -11 45 -15 48 -5 3 -9 18 -9 33 0 15 -3 31 -7 35 -4 4 -14
33 -21 64 -7 31 -17 75 -22 97 -5 22 -14 63 -19 90 -6 28 -17 82 -26 120 -9
39 -21 95 -25 125 -5 30 -16 100 -25 155 -100 590 -119 1324 -50 1940 24 210
32 271 50 375 9 52 20 120 25 150 4 30 16 87 25 125 9 39 20 90 25 115 5 25
13 63 19 85 5 22 15 67 21 100 7 33 17 64 21 70 5 5 9 21 9 36 0 15 4 30 9 33
5 3 12 27 16 52 3 26 10 56 15 68 4 11 20 62 35 111 15 50 31 99 35 110 22 59
40 122 40 138 0 9 3 17 8 17 4 0 16 28 26 63 11 34 23 69 27 77 24 49 39 91
39 109 0 12 5 21 10 21 6 0 10 6 10 14 0 7 7 27 15 42 8 16 15 37 15 47 0 9 5
17 10 17 6 0 10 7 10 15 0 8 4 23 10 33 5 9 16 34 25 54 43 107 100 228 181
393 60 121 84 167 152 285 26 46 54 97 88 160 11 19 24 40 31 47 9 10 92 145
146 238 7 11 15 22 18 25 7 6 93 130 143 205 18 28 39 57 47 65 8 8 27 33 43
55 17 22 32 42 36 45 3 3 25 32 50 65 24 33 50 66 57 73 7 7 13 16 13 20 0 4
22 30 48 58 26 29 54 60 62 70 65 80 144 170 200 229 37 39 96 101 131 139 59
64 178 182 290 287 39 37 94 86 162 144 7 6 44 37 82 70 39 33 72 62 75 66 3
3 23 18 45 34 22 17 42 32 45 36 3 3 32 25 65 50 33 24 67 50 75 58 15 15 135
104 180 133 91 61 176 122 178 129 2 5 8 9 13 9 5 0 81 45 169 100 88 55 164
100 169 100 5 0 11 3 13 8 2 4 17 14 33 23 77 40 140 75 145 80 7 7 495 249
504 249 4 0 26 9 49 19 23 10 94 40 157 66 63 25 122 50 130 54 9 5 30 12 48
15 17 4 34 12 37 17 4 5 17 9 31 9 13 0 24 5 24 10 0 6 8 10 17 10 16 0 77 19
128 40 11 5 45 16 75 25 30 9 64 20 75 25 11 4 47 16 80 25 33 9 71 20 85 25
14 4 43 12 65 18 22 6 63 18 92 26 28 9 60 16 70 16 11 0 23 4 29 9 8 8 64 21
159 37 17 3 39 9 50 14 11 4 49 13 85 20 36 7 88 16 115 21 28 6 77 14 110 19
33 4 107 16 165 25 58 10 123 19 145 21 22 2 72 9 110 14 278 40 1028 57 1305
30z"/>
<path d="M14925 18975 c-22 -8 -52 -14 -67 -14 -16 -1 -28 -5 -28 -11 0 -5 -6
-10 -14 -10 -14 0 -27 -6 -111 -48 -22 -12 -56 -29 -75 -39 -19 -9 -41 -23
-48 -30 -7 -7 -20 -13 -28 -13 -8 0 -14 -4 -14 -10 0 -5 -7 -10 -15 -10 -8 0
-15 -3 -15 -7 0 -5 -20 -17 -45 -28 -25 -11 -45 -22 -45 -25 0 -3 -18 -14 -40
-24 -22 -11 -40 -22 -40 -26 0 -3 -16 -12 -35 -19 -19 -7 -41 -18 -48 -24 -7
-7 -22 -17 -32 -23 -11 -6 -47 -26 -80 -44 -33 -18 -71 -41 -85 -50 -21 -15
-64 -39 -165 -94 -11 -6 -22 -14 -25 -17 -3 -3 -30 -19 -60 -35 -30 -16 -61
-35 -68 -41 -7 -7 -20 -13 -28 -13 -8 0 -14 -4 -14 -9 0 -5 -8 -11 -17 -14
-21 -7 -95 -49 -103 -58 -3 -4 -15 -9 -27 -13 -13 -4 -23 -12 -23 -17 0 -5 -9
-9 -20 -9 -11 0 -20 -3 -20 -7 0 -5 -18 -17 -40 -27 -22 -11 -40 -22 -40 -26
0 -4 -8 -10 -17 -13 -19 -6 -64 -32 -218 -122 -107 -62 -148 -86 -195 -111
-19 -11 -37 -22 -40 -25 -5 -6 -58 -37 -130 -75 -19 -11 -37 -21 -40 -24 -9
-9 -85 -51 -102 -57 -10 -3 -18 -9 -18 -14 0 -5 -6 -9 -14 -9 -8 0 -21 -6 -28
-12 -12 -12 -39 -28 -103 -62 -11 -6 -22 -13 -25 -16 -3 -3 -21 -13 -40 -24
-67 -36 -125 -70 -177 -103 -29 -18 -55 -33 -58 -33 -3 0 -24 -12 -48 -27 -74
-46 -210 -123 -218 -123 -5 0 -9 -4 -9 -9 0 -5 -8 -11 -17 -14 -23 -7 -94 -49
-111 -64 -7 -7 -20 -13 -28 -13 -8 0 -14 -4 -14 -10 0 -5 -9 -10 -20 -10 -11
0 -20 -4 -20 -9 0 -5 -8 -11 -17 -15 -18 -5 -53 -26 -63 -36 -3 -3 -23 -14
-45 -25 -22 -11 -42 -22 -45 -25 -3 -3 -21 -14 -40 -24 -19 -11 -37 -22 -40
-25 -3 -3 -21 -14 -40 -24 -19 -10 -44 -23 -55 -30 -11 -7 -74 -43 -140 -82
-66 -38 -133 -78 -150 -87 -16 -10 -41 -24 -55 -30 -14 -7 -27 -15 -30 -18 -8
-8 -41 -28 -80 -47 -19 -9 -41 -23 -48 -30 -7 -7 -20 -13 -28 -13 -8 0 -14 -4
-14 -10 0 -7 -145 -10 -415 -10 -228 0 -423 -4 -433 -9 -27 -13 -118 -41 -135
-41 -8 0 -17 -3 -19 -7 -1 -5 -29 -21 -60 -37 -32 -16 -83 -51 -115 -78 -31
-26 -61 -48 -65 -48 -4 0 -8 -4 -8 -10 0 -9 -9 -21 -72 -94 -15 -17 -28 -39
-28 -48 0 -10 -3 -18 -8 -18 -22 0 -73 -133 -101 -270 -16 -72 -10 -4922 5
-4990 20 -88 77 -230 96 -238 4 -2 8 -9 8 -16 0 -7 8 -22 18 -33 9 -12 31 -38
47 -59 37 -46 42 -52 95 -95 23 -18 51 -42 62 -51 12 -10 27 -18 34 -18 7 0
14 -3 16 -7 4 -11 105 -59 151 -73 134 -41 8 -40 3582 -40 3655 0 3460 -2
3603 46 41 13 161 72 172 84 3 3 25 21 50 40 55 43 89 77 126 127 16 21 32 40
35 43 15 11 89 162 89 179 0 11 5 23 10 26 6 3 10 16 10 29 0 12 6 28 13 34 9
10 13 167 15 701 l3 689 66 32 c71 35 93 52 160 118 47 46 113 142 113 165 0
7 4 17 9 22 5 6 17 38 25 71 14 53 16 155 16 739 0 607 -2 683 -17 741 -9 35
-21 64 -25 64 -4 0 -8 6 -8 14 0 15 -28 73 -45 91 -5 6 -21 27 -34 46 -33 47
-113 113 -180 146 -30 15 -61 33 -68 40 -10 9 -13 142 -14 635 0 343 -4 652
-9 688 -14 98 -21 130 -31 130 -5 0 -9 9 -9 20 0 19 -29 90 -41 100 -4 3 -9
14 -13 25 -3 11 -17 33 -31 49 -14 16 -25 33 -25 37 0 29 -216 209 -250 209
-5 0 -10 4 -10 9 0 5 -10 12 -22 16 -24 7 -39 13 -100 39 -20 9 -54 16 -75 16
-21 0 -43 4 -48 9 -6 5 -21 11 -34 13 -13 1 -29 12 -35 23 -6 10 -17 25 -23
33 -7 7 -13 20 -13 28 0 8 -3 14 -8 14 -4 0 -15 17 -25 38 -10 20 -23 46 -30
57 -7 11 -30 52 -51 90 -22 39 -47 81 -56 95 -10 14 -32 52 -49 85 -18 33 -43
78 -57 100 -13 22 -29 52 -35 68 -6 15 -15 27 -20 27 -5 0 -9 4 -9 10 0 8
-107 198 -171 304 -10 17 -27 48 -36 69 -10 20 -21 37 -25 37 -5 0 -8 6 -8 14
0 8 -6 21 -12 28 -7 7 -20 27 -28 43 -8 17 -32 58 -52 93 -21 34 -38 65 -38
68 0 3 -8 18 -19 32 -15 23 -39 64 -95 167 -6 11 -13 22 -16 25 -3 3 -14 23
-25 45 -11 22 -22 42 -25 45 -3 3 -12 19 -21 35 -9 17 -39 70 -67 119 -29 49
-52 91 -52 93 0 15 -138 210 -167 236 -20 18 -49 44 -65 60 -16 15 -31 27 -34
27 -5 0 -87 52 -94 60 -3 4 -27 14 -55 24 -27 10 -59 22 -70 27 -79 36 -319
50 -400 24z m321 -421 c56 -27 133 -94 154 -134 8 -15 3 -23 -28 -42 -62 -39
-116 -69 -134 -75 -10 -3 -18 -9 -18 -13 0 -4 -20 -15 -45 -26 -25 -10 -45
-21 -45 -24 0 -3 -17 -14 -37 -25 -21 -11 -40 -22 -43 -25 -3 -3 -24 -14 -47
-25 -24 -11 -43 -23 -43 -27 0 -5 -7 -8 -15 -8 -8 0 -15 -4 -15 -10 0 -5 -6
-10 -14 -10 -8 0 -21 -6 -28 -13 -7 -7 -32 -22 -55 -32 -24 -10 -43 -22 -43
-27 0 -4 -7 -8 -15 -8 -8 0 -15 -3 -15 -7 0 -5 -20 -17 -45 -28 -25 -11 -45
-23 -45 -27 0 -5 -5 -8 -11 -8 -7 0 -40 -18 -75 -40 -35 -22 -66 -40 -69 -40
-2 0 -28 -15 -57 -33 -29 -19 -78 -47 -108 -63 -30 -16 -57 -32 -60 -35 -4 -5
-47 -30 -145 -83 -11 -6 -22 -13 -25 -16 -8 -8 -42 -28 -80 -47 -19 -9 -41
-23 -48 -30 -7 -7 -20 -13 -28 -13 -8 0 -14 -4 -14 -9 0 -5 -8 -11 -17 -14
-25 -8 -97 -50 -101 -59 -2 -5 -8 -8 -13 -8 -9 0 -127 -67 -155 -87 -5 -4 -26
-16 -45 -27 -62 -34 -103 -58 -164 -94 -93 -57 -138 -82 -157 -89 -10 -3 -18
-9 -18 -13 0 -4 -19 -15 -42 -26 -24 -10 -45 -21 -48 -24 -3 -4 -12 -9 -20
-13 -17 -8 -53 -30 -60 -37 -3 -3 -23 -14 -45 -25 -22 -11 -42 -22 -45 -25 -3
-3 -22 -14 -42 -25 -21 -11 -38 -23 -38 -27 0 -5 -9 -8 -20 -8 -11 0 -20 -4
-20 -9 0 -5 -11 -12 -25 -15 -14 -4 -25 -11 -25 -16 0 -6 -7 -10 -15 -10 -8 0
-15 -3 -15 -7 0 -5 -20 -17 -45 -28 -25 -11 -45 -23 -45 -27 0 -5 -4 -8 -9 -8
-8 0 -144 -77 -218 -123 -24 -15 -45 -27 -48 -27 -3 0 -23 -11 -45 -25 l-40
-25 -360 0 c-293 0 -360 2 -360 13 0 8 12 20 28 28 15 7 62 35 105 61 43 27
81 48 83 48 2 0 23 12 47 27 74 46 210 123 218 123 5 0 9 5 9 10 0 6 4 10 10
10 5 0 31 13 57 29 93 56 138 82 166 94 15 6 27 15 27 19 0 4 7 8 15 8 8 0 15
3 15 8 0 4 20 16 45 27 25 11 45 22 45 26 0 4 10 9 23 13 12 3 31 13 42 23 11
10 39 27 62 38 24 11 43 23 43 28 0 4 4 7 9 7 8 0 144 77 218 123 24 15 45 27
48 27 3 0 34 17 68 38 138 85 186 112 196 112 6 0 11 4 11 9 0 5 8 11 18 14
24 8 96 50 100 60 2 4 10 7 17 7 8 0 20 6 27 13 8 6 23 17 33 23 73 40 91 50
95 54 3 3 16 11 30 18 14 6 39 20 56 30 73 42 184 108 242 144 35 21 65 38 68
38 2 0 21 11 42 23 38 25 101 60 162 93 19 11 37 22 40 25 3 3 12 9 20 12 8 4
33 19 55 33 22 14 52 30 68 37 15 6 27 15 27 19 0 4 7 8 15 8 8 0 15 3 15 8 0
4 20 16 45 27 25 11 45 23 45 27 0 5 5 8 11 8 10 0 58 27 196 112 34 21 65 38
67 38 3 0 42 23 87 50 45 28 88 50 96 50 7 0 13 4 13 8 0 16 87 30 171 27 71
-2 97 -7 145 -31z m420 -591 c27 -49 50 -94 52 -100 2 -7 7 -13 10 -13 4 0 16
-20 27 -45 11 -25 23 -45 28 -45 15 0 6 -46 -10 -56 -16 -9 -93 -52 -158 -88
-11 -6 -22 -13 -25 -16 -3 -3 -14 -10 -25 -16 -64 -34 -91 -50 -103 -61 -7 -7
-20 -13 -28 -13 -8 0 -14 -3 -14 -8 0 -4 -19 -16 -41 -27 -67 -32 -79 -39 -79
-47 0 -5 -6 -8 -14 -8 -8 0 -21 -6 -28 -12 -7 -7 -38 -26 -68 -42 -30 -16 -57
-31 -60 -35 -3 -3 -21 -14 -40 -25 -50 -27 -93 -51 -195 -111 -107 -63 -148
-86 -195 -111 -19 -11 -37 -22 -40 -25 -3 -4 -30 -19 -60 -35 -30 -16 -61 -35
-68 -41 -7 -7 -20 -13 -28 -13 -8 0 -14 -4 -14 -10 0 -5 -7 -10 -15 -10 -8 0
-15 -3 -15 -7 0 -5 -20 -17 -45 -28 -25 -11 -45 -22 -45 -26 0 -4 -11 -10 -25
-13 -14 -4 -25 -11 -25 -16 0 -6 -7 -10 -15 -10 -8 0 -15 -4 -15 -8 0 -4 -16
-14 -35 -21 -19 -7 -40 -18 -47 -24 -7 -7 -30 -21 -50 -32 -21 -11 -38 -23
-38 -27 0 -5 -6 -8 -14 -8 -8 0 -52 -22 -97 -50 l-82 -50 -364 0 c-205 0 -363
4 -363 9 0 8 124 91 136 91 2 0 23 12 47 27 74 46 210 123 218 123 5 0 9 4 9
9 0 5 10 13 22 17 12 3 45 22 74 40 29 19 58 34 64 34 5 0 10 4 10 9 0 5 8 11
18 14 17 6 105 55 149 83 12 8 44 26 70 41 26 14 50 29 53 32 3 3 21 14 40 25
71 38 342 194 400 231 30 19 92 54 175 99 11 6 22 13 25 16 9 9 85 51 103 57
9 3 17 9 17 14 0 5 6 9 14 9 8 0 21 6 28 13 8 6 23 17 33 23 73 39 91 50 95
54 3 3 21 13 40 24 71 38 126 70 178 103 29 18 55 33 57 33 3 0 24 12 48 27
74 46 210 123 218 123 5 0 9 3 9 8 0 8 38 29 56 31 5 0 32 -38 60 -86z m360
-630 c10 -21 21 -40 24 -43 3 -3 14 -23 25 -45 11 -22 22 -42 25 -45 3 -3 10
-14 16 -25 30 -56 50 -91 54 -95 3 -3 13 -21 24 -40 33 -61 68 -124 93 -162
12 -21 23 -42 23 -48 0 -5 3 -10 8 -10 4 0 16 -19 27 -43 11 -23 22 -44 25
-47 13 -12 40 -70 40 -84 0 -15 -76 -16 -825 -16 -675 0 -825 2 -825 13 0 12
42 38 160 103 19 10 37 21 40 24 3 3 14 10 25 16 64 34 91 50 103 62 7 6 20
12 28 12 8 0 14 4 14 9 0 5 8 11 18 14 17 6 93 48 102 57 3 3 16 11 30 18 14
6 39 20 56 30 73 42 184 108 242 144 35 21 65 38 67 38 3 0 284 164 325 189
26 17 36 12 56 -26z m884 -1108 c110 -29 204 -99 245 -180 11 -22 23 -42 26
-45 19 -16 23 -125 26 -697 l3 -633 -650 0 c-550 0 -662 -2 -732 -16 -46 -8
-92 -19 -103 -23 -11 -5 -45 -16 -75 -26 -30 -9 -78 -28 -106 -41 -28 -13 -56
-24 -62 -24 -6 0 -12 -3 -14 -8 -2 -4 -34 -27 -73 -52 -82 -53 -96 -64 -184
-150 -72 -71 -131 -136 -131 -145 0 -4 -11 -21 -24 -38 -28 -36 -126 -228
-126 -246 0 -6 -4 -19 -9 -29 -17 -33 -41 -129 -41 -163 0 -19 -5 -40 -10 -45
-13 -13 -7 -314 8 -396 10 -54 27 -117 41 -148 4 -8 16 -41 26 -72 11 -32 23
-58 27 -58 4 0 8 -7 8 -15 0 -9 16 -41 35 -71 19 -30 35 -58 35 -62 0 -4 14
-23 30 -42 76 -90 116 -135 133 -149 10 -9 40 -37 68 -63 28 -26 59 -50 70
-53 10 -4 19 -11 19 -16 0 -5 7 -9 15 -9 8 0 15 -4 15 -9 0 -5 10 -13 23 -17
12 -4 24 -10 27 -13 18 -23 227 -110 266 -111 11 0 24 -4 30 -9 5 -4 54 -16
109 -25 86 -14 196 -16 728 -16 l627 0 0 -629 c0 -409 -4 -632 -10 -636 -5 -3
-10 -14 -10 -24 0 -40 -102 -191 -128 -191 -5 0 -17 -8 -28 -18 -27 -25 -71
-43 -134 -55 -84 -16 -6744 -16 -6825 0 -81 17 -140 48 -200 108 -60 59 -93
126 -106 209 -6 37 -8 1016 -7 2466 3 2365 3 2406 23 2453 10 26 23 47 27 47
4 0 8 5 8 10 0 25 90 111 144 139 99 51 -97 48 3516 50 2931 1 3382 -1 3430
-14z m607 -1987 c25 -17 49 -45 64 -75 l24 -48 3 -590 c3 -600 -1 -687 -35
-720 -7 -8 -13 -18 -13 -24 0 -6 -4 -11 -8 -11 -5 0 -17 -8 -28 -18 -42 -40
-87 -42 -793 -42 -652 0 -881 8 -889 31 -2 5 -11 9 -21 9 -20 0 -114 30 -121
39 -3 3 -23 15 -45 26 -22 11 -42 22 -45 25 -3 3 -23 18 -45 35 -54 40 -103
89 -152 155 -46 62 -113 189 -113 214 0 10 -5 27 -11 39 -11 20 -31 152 -32
207 0 53 16 158 34 220 21 69 75 186 96 208 7 7 13 18 13 23 0 10 136 148 181
184 14 11 43 29 65 40 21 11 41 23 44 26 9 12 153 58 210 68 31 5 392 8 816 7
l760 -1 41 -27z"/>
<path d="M15990 13882 c-25 -1 -54 -6 -65 -11 -11 -5 -39 -17 -63 -27 -45 -18
-142 -103 -142 -123 0 -6 -4 -11 -10 -11 -5 0 -12 -11 -16 -25 -3 -14 -10 -25
-14 -25 -4 0 -10 -12 -13 -27 -3 -16 -11 -48 -17 -73 -30 -114 25 -272 124
-362 39 -34 120 -78 146 -78 11 0 20 -4 20 -10 0 -6 38 -10 94 -10 53 0 98 4
101 10 3 6 15 10 26 10 63 0 184 107 234 206 28 54 30 67 30 164 0 99 -2 109
-32 170 -53 106 -110 157 -233 208 -29 12 -104 18 -170 14z"/>
<path d="M13541 3295 c-216 -61 -289 -335 -130 -494 116 -116 307 -114 422 4
59 60 81 118 81 205 0 95 -25 150 -100 219 -77 70 -173 93 -273 66z m174 -128
c54 -30 85 -87 85 -155 0 -72 -24 -118 -79 -153 -51 -33 -132 -40 -179 -15
-31 16 -74 61 -91 93 -14 27 -14 103 0 140 38 101 167 145 264 90z"/>
<path d="M12663 3108 c-71 -101 -217 -309 -326 -464 l-197 -281 0 -71 0 -72
335 0 335 0 0 -160 0 -160 75 0 75 0 0 160 0 160 105 0 105 0 0 70 0 70 -105
0 -105 0 0 465 0 465 -84 0 -85 0 -128 -182z m149 -370 l-3 -378 -255 0 c-201
0 -254 3 -248 13 4 6 105 152 224 322 120 171 232 336 250 368 18 32 33 57 34
55 0 -2 0 -173 -2 -380z"/>
<path d="M14577 3278 c-77 -194 -531 -1348 -535 -1361 -4 -16 3 -18 78 -15
l82 3 28 70 c15 39 53 136 85 218 l57 147 276 -2 277 -3 85 -217 85 -218 83 0
c45 0 82 3 82 8 0 4 -121 315 -269 692 l-268 685 -70 3 c-51 2 -72 -1 -76 -10z
m87 -220 c4 -18 51 -152 106 -298 54 -145 98 -266 96 -267 -2 -2 -100 -2 -218
-1 l-215 3 88 234 c48 129 96 263 106 298 10 35 21 63 24 63 4 0 10 -15 13
-32z"/>
</g>
</svg>
